<svg xmlns="http://www.w3.org/2000/svg" width="98.234" height="58.53" viewBox="0 0 98.234 58.53">
  <g id="Group_346" data-name="Group 346" transform="translate(-303.652 -36.275)">
    <g id="Group_18" data-name="Group 18" transform="translate(303.652 42.75)" style="mix-blend-mode: multiply;isolation: isolate">
      <path id="Path_42" data-name="Path 42" d="M451.766,105.115,420.329,89.093c-2.6-1.5-4.7-5.537-4.7-9.011V62.02c0-3.473,4.415-5.2,7.012-3.7L459.318,80.5Z" transform="translate(-415.628 -57.777)" fill="#f1f2f2" opacity="0.1"/>
      <path id="Path_43" data-name="Path 43" d="M451.875,105.068,420.694,89.12c-2.565-1.486-4.645-5.472-4.645-8.9V62.371c0-3.431,4.28-5.135,6.846-3.648L459.25,80.648Z" transform="translate(-415.738 -57.883)" fill="#eceff0" opacity="0.143"/>
      <path id="Path_44" data-name="Path 44" d="M451.984,105.021,421.059,89.146c-2.534-1.468-4.589-5.405-4.589-8.8V62.721c0-3.39,4.145-5.068,6.68-3.6l36.031,21.673Z" transform="translate(-415.849 -57.988)" fill="#e7ebee" opacity="0.186"/>
      <path id="Path_45" data-name="Path 45" d="M452.093,104.974l-30.669-15.8c-2.5-1.45-4.533-5.339-4.533-8.688V63.072c0-3.349,4.01-5,6.514-3.552l35.708,21.42Z" transform="translate(-415.959 -58.093)" fill="#e2e8ec" opacity="0.229"/>
      <path id="Path_46" data-name="Path 46" d="M452.2,104.927,421.789,89.2c-2.472-1.432-4.476-5.273-4.476-8.579v-17.2c0-3.307,3.875-4.934,6.347-3.5l35.385,21.167Z" transform="translate(-416.07 -58.199)" fill="#dee5ea" opacity="0.271"/>
      <path id="Path_47" data-name="Path 47" d="M452.312,104.879,422.154,89.226c-2.441-1.414-4.42-5.207-4.42-8.472V63.773c0-3.265,3.739-4.868,6.18-3.453l35.062,20.915Z" transform="translate(-416.18 -58.304)" fill="#d9e1e8" opacity="0.314"/>
      <path id="Path_48" data-name="Path 48" d="M452.421,104.832l-29.9-15.579c-2.41-1.4-4.364-5.139-4.364-8.364V64.123a4.033,4.033,0,0,1,6.014-3.4L458.908,81.38Z" transform="translate(-416.291 -58.409)" fill="#d4dee6" opacity="0.357"/>
      <path id="Path_49" data-name="Path 49" d="M452.53,104.785,422.884,89.279c-2.379-1.378-4.308-5.074-4.308-8.256V64.473a3.911,3.911,0,0,1,5.848-3.355l34.415,20.41Z" transform="translate(-416.401 -58.515)" fill="#cfdbe4" opacity="0.4"/>
      <path id="Path_50" data-name="Path 50" d="M452.638,104.738l-29.39-15.431C420.9,87.945,419,84.3,419,81.158V64.823a3.79,3.79,0,0,1,5.682-3.306l34.092,20.156Z" transform="translate(-416.511 -58.62)" fill="#cad7e2" opacity="0.443"/>
      <path id="Path_51" data-name="Path 51" d="M452.747,104.691,423.614,89.332c-2.317-1.342-4.2-4.941-4.2-8.041V65.174a3.671,3.671,0,0,1,5.516-3.257L458.7,81.82Z" transform="translate(-416.622 -58.725)" fill="#c5d4e0" opacity="0.486"/>
      <path id="Path_52" data-name="Path 52" d="M452.857,104.644,423.979,89.359c-2.286-1.324-4.139-4.875-4.139-7.933v-15.9a3.553,3.553,0,0,1,5.349-3.209l33.445,19.651Z" transform="translate(-416.733 -58.831)" fill="#c0d1de" opacity="0.529"/>
      <path id="Path_53" data-name="Path 53" d="M452.966,104.6,424.344,89.385c-2.255-1.306-4.083-4.809-4.083-7.824V65.875a3.435,3.435,0,0,1,5.183-3.159l33.122,19.4Z" transform="translate(-416.843 -58.936)" fill="#bccddb" opacity="0.571"/>
      <path id="Path_54" data-name="Path 54" d="M453.075,104.549,424.709,89.412c-2.224-1.288-4.027-4.743-4.027-7.717V66.225a3.319,3.319,0,0,1,5.017-3.111L458.5,82.26Z" transform="translate(-416.953 -59.042)" fill="#b7cad9" opacity="0.614"/>
      <path id="Path_55" data-name="Path 55" d="M453.184,104.5,425.074,89.439c-2.193-1.27-3.971-4.676-3.971-7.609V66.576c0-2.933,2.658-4.331,4.851-3.062l32.475,18.892Z" transform="translate(-417.064 -59.147)" fill="#b2c7d7" opacity="0.657"/>
      <path id="Path_56" data-name="Path 56" d="M453.293,104.455,425.439,89.466c-2.162-1.252-3.915-4.61-3.915-7.5V66.926c0-2.892,2.523-4.265,4.685-3.012l32.152,18.639Z" transform="translate(-417.174 -59.252)" fill="#adc3d5" opacity="0.7"/>
      <path id="Path_57" data-name="Path 57" d="M453.4,104.408,425.8,89.492c-2.131-1.234-3.858-4.544-3.858-7.393V67.276c0-2.849,2.388-4.2,4.519-2.963L458.292,82.7Z" transform="translate(-417.285 -59.358)" fill="#a8c0d3" opacity="0.743"/>
      <path id="Path_58" data-name="Path 58" d="M453.511,104.361,426.169,89.519c-2.1-1.216-3.8-4.478-3.8-7.286V67.626c0-2.808,2.252-4.13,4.352-2.914l31.505,18.134Z" transform="translate(-417.395 -59.463)" fill="#a3bdd1" opacity="0.786"/>
      <path id="Path_59" data-name="Path 59" d="M453.62,104.313,426.534,89.546c-2.069-1.2-3.746-4.412-3.746-7.179V67.977c0-2.767,2.117-4.064,4.185-2.866l31.182,17.881Z" transform="translate(-417.506 -59.568)" fill="#9eb9cf" opacity="0.829"/>
      <path id="Path_60" data-name="Path 60" d="M453.729,104.266,426.9,89.572c-2.038-1.18-3.689-4.345-3.689-7.07V68.328c0-2.726,1.982-4,4.019-2.817l30.859,17.627Z" transform="translate(-417.616 -59.674)" fill="#9ab6cd" opacity="0.871"/>
      <path id="Path_61" data-name="Path 61" d="M453.839,104.219,427.263,89.6c-2.007-1.162-3.633-4.279-3.633-6.962V68.678c0-2.684,1.847-3.93,3.853-2.768l30.536,17.375Z" transform="translate(-417.727 -59.779)" fill="#95b3cb" opacity="0.914"/>
      <path id="Path_62" data-name="Path 62" d="M453.948,104.172,427.628,89.625c-1.976-1.144-3.577-4.212-3.577-6.854V69.028c0-2.642,1.712-3.863,3.687-2.719L457.95,83.431Z" transform="translate(-417.837 -59.884)" fill="#90afc9" opacity="0.957"/>
      <path id="Path_63" data-name="Path 63" d="M454.057,104.125,427.993,89.652c-1.945-1.126-3.521-4.146-3.521-6.747V69.379c0-2.6,1.577-3.8,3.521-2.67l29.888,16.869Z" transform="translate(-417.947 -59.99)" fill="#8bacc7"/>
    </g>
    <g id="Group_19" data-name="Group 19" transform="translate(307.653 46.166)">
      <path id="Path_64" data-name="Path 64" d="M473.352,94.858V117.7l2.8-1.545V93.169Z" transform="translate(-434.767 -70.399)" fill="#2672ab"/>
      <path id="Path_65" data-name="Path 65" d="M459.656,87.429v22.843L421.051,87.6V64.608Z" transform="translate(-421.051 -62.971)" fill="#3f92d1"/>
      <path id="Path_66" data-name="Path 66" d="M421.051,64.032l38.605,22.821,2.776-1.688L423.791,62.4Z" transform="translate(-421.051 -62.395)" fill="#72b5e8"/>
      <path id="Path_67" data-name="Path 67" d="M421.051,64.608l38.605,22.821,2.776-1.688-2.916.793Z" transform="translate(-421.051 -62.971)" fill="#fff" opacity="0.5"/>
    </g>
    <g id="Group_22" data-name="Group 22" transform="translate(329.159 36.275)">
      <g id="Group_20" data-name="Group 20" style="mix-blend-mode: multiply;isolation: isolate">
        <path id="Path_68" data-name="Path 68" d="M468.385,82.553l-14.135-6.664c-2.236-1.293-4.047-4.766-4.047-7.756V52.581c0-2.988,1.811-4.362,4.047-3.068L474.7,60.392Z" transform="translate(-450.202 -49.026)" fill="#f1f2f2" opacity="0.1"/>
        <path id="Path_69" data-name="Path 69" d="M468.535,82.478l-13.949-6.592c-2.2-1.272-3.979-4.687-3.979-7.626V52.969c0-2.939,1.781-4.29,3.979-3.017l20.1,10.69Z" transform="translate(-450.308 -49.142)" fill="#eceff0" opacity="0.143"/>
        <path id="Path_70" data-name="Path 70" d="M468.686,82.4l-13.763-6.52c-2.161-1.25-3.912-4.607-3.912-7.5V53.356c0-2.889,1.751-4.217,3.912-2.966l19.747,10.5Z" transform="translate(-450.414 -49.258)" fill="#e7ebee" opacity="0.186"/>
        <path id="Path_71" data-name="Path 71" d="M468.837,82.329,455.26,75.882c-2.124-1.229-3.844-4.527-3.844-7.367V53.743c0-2.839,1.72-4.143,3.844-2.914l19.4,10.315Z" transform="translate(-450.52 -49.375)" fill="#e2e8ec" opacity="0.229"/>
        <path id="Path_72" data-name="Path 72" d="M468.987,82.255,455.6,75.879c-2.086-1.208-3.777-4.448-3.777-7.238V54.131c0-2.789,1.69-4.071,3.777-2.863l19.044,10.127Z" transform="translate(-450.627 -49.491)" fill="#dee5ea" opacity="0.271"/>
        <path id="Path_73" data-name="Path 73" d="M469.137,82.18l-13.2-6.3c-2.049-1.186-3.709-4.368-3.709-7.108V54.517c0-2.739,1.66-4,3.709-2.812l18.693,9.94Z" transform="translate(-450.733 -49.607)" fill="#d9e1e8" opacity="0.314"/>
        <path id="Path_74" data-name="Path 74" d="M469.288,82.106l-13.016-6.231c-2.012-1.165-3.641-4.29-3.641-6.979V54.9c0-2.69,1.63-3.925,3.641-2.761L474.614,61.9Z" transform="translate(-450.839 -49.723)" fill="#d4dee6" opacity="0.357"/>
        <path id="Path_75" data-name="Path 75" d="M469.439,82.032l-12.829-6.158c-1.975-1.143-3.574-4.21-3.574-6.849V55.291c0-2.639,1.6-3.852,3.574-2.71l17.99,9.565Z" transform="translate(-450.945 -49.839)" fill="#cfdbe4" opacity="0.4"/>
        <path id="Path_76" data-name="Path 76" d="M469.589,81.958l-12.643-6.086c-1.937-1.122-3.507-4.13-3.507-6.72V55.679c0-2.59,1.569-3.779,3.507-2.658L474.585,62.4Z" transform="translate(-451.051 -49.955)" fill="#cad7e2" opacity="0.443"/>
        <path id="Path_77" data-name="Path 77" d="M469.74,81.883l-12.456-6.014a8.267,8.267,0,0,1-3.439-6.59V56.066c0-2.539,1.539-3.706,3.439-2.607l17.288,9.19Z" transform="translate(-451.157 -50.072)" fill="#c5d4e0" opacity="0.486"/>
        <path id="Path_78" data-name="Path 78" d="M469.89,81.809l-12.27-5.942a8.1,8.1,0,0,1-3.372-6.461V56.453c0-2.49,1.509-3.634,3.372-2.556l16.937,9Z" transform="translate(-451.263 -50.188)" fill="#c0d1de" opacity="0.529"/>
        <path id="Path_79" data-name="Path 79" d="M470.041,81.734l-12.083-5.87a7.943,7.943,0,0,1-3.3-6.331V56.841c0-2.44,1.478-3.561,3.3-2.505l16.585,8.814Z" transform="translate(-451.37 -50.304)" fill="#bccddb" opacity="0.571"/>
        <path id="Path_80" data-name="Path 80" d="M470.192,81.66l-11.9-5.8a7.78,7.78,0,0,1-3.236-6.2V57.228c0-2.39,1.448-3.488,3.236-2.454L474.529,63.4Z" transform="translate(-451.476 -50.42)" fill="#b7cad9" opacity="0.614"/>
        <path id="Path_81" data-name="Path 81" d="M470.342,81.585l-11.71-5.725a7.616,7.616,0,0,1-3.169-6.072V57.615c0-2.34,1.418-3.415,3.169-2.4l15.883,8.439Z" transform="translate(-451.582 -50.536)" fill="#b2c7d7" opacity="0.657"/>
        <path id="Path_82" data-name="Path 82" d="M470.492,81.511l-11.523-5.654a7.454,7.454,0,0,1-3.1-5.943V58c0-2.289,1.388-3.341,3.1-2.351L474.5,63.9Z" transform="translate(-451.688 -50.652)" fill="#adc3d5" opacity="0.7"/>
        <path id="Path_83" data-name="Path 83" d="M470.643,81.437l-11.336-5.581a7.292,7.292,0,0,1-3.034-5.813V58.389c0-2.24,1.357-3.27,3.034-2.3l15.18,8.063Z" transform="translate(-451.794 -50.768)" fill="#a8c0d3" opacity="0.743"/>
        <path id="Path_84" data-name="Path 84" d="M470.794,81.363l-11.15-5.509a7.131,7.131,0,0,1-2.966-5.684V58.776c0-2.19,1.327-3.2,2.966-2.249L474.473,64.4Z" transform="translate(-451.9 -50.885)" fill="#a3bdd1" opacity="0.786"/>
        <path id="Path_85" data-name="Path 85" d="M470.944,81.288l-10.964-5.437a6.967,6.967,0,0,1-2.9-5.554V59.163c0-2.14,1.3-3.123,2.9-2.2l14.478,7.688Z" transform="translate(-452.006 -51.001)" fill="#9eb9cf" opacity="0.829"/>
        <path id="Path_86" data-name="Path 86" d="M471.095,81.214l-10.777-5.365a6.8,6.8,0,0,1-2.831-5.424V59.551c0-2.09,1.267-3.051,2.831-2.146l14.127,7.5Z" transform="translate(-452.112 -51.117)" fill="#9ab6cd" opacity="0.871"/>
        <path id="Path_87" data-name="Path 87" d="M471.245,81.14l-10.59-5.293a6.643,6.643,0,0,1-2.763-5.295V59.938c0-2.041,1.236-2.978,2.763-2.095l13.775,7.313Z" transform="translate(-452.219 -51.233)" fill="#95b3cb" opacity="0.914"/>
        <path id="Path_88" data-name="Path 88" d="M471.4,81.065l-10.4-5.221a6.479,6.479,0,0,1-2.7-5.165V60.325c0-1.99,1.206-2.9,2.7-2.044l13.424,7.126Z" transform="translate(-452.325 -51.349)" fill="#90afc9" opacity="0.957"/>
        <path id="Path_89" data-name="Path 89" d="M471.547,80.991l-10.218-5.149a6.318,6.318,0,0,1-2.628-5.036V60.712c0-1.94,1.176-2.832,2.628-1.992L474.4,65.658Z" transform="translate(-452.431 -51.465)" fill="#8bacc7"/>
      </g>
      <g id="Group_21" data-name="Group 21" transform="translate(4.898 4.492)">
        <path id="Path_90" data-name="Path 90" d="M513.014,89.829v27.854l2.828-1.635V87.96Z" transform="translate(-471.572 -63.645)" fill="#0ba19f"/>
        <path id="Path_91" data-name="Path 91" d="M456.841,56.884l41.475,24.4,2.794-1.869L459.578,55.1Z" transform="translate(-456.841 -55.098)" fill="#3ecfcd"/>
        <path id="Path_92" data-name="Path 92" d="M456.841,57.512l41.475,24.4,2.794-1.869-2.672,1.223Z" transform="translate(-456.841 -55.725)" fill="#fff" opacity="0.7"/>
      </g>
      <path id="Path_93" data-name="Path 93" d="M456.841,57.512V76.15l14.145,8.319v9.325l27.33,15.969V81.909Z" transform="translate(-451.943 -51.233)" fill="#0fbab8"/>
      <path id="Path_94" data-name="Path 94" d="M480.769,89.469v1.775l20.439,11.7V101.17Z" transform="translate(-458.218 -59.545)" fill="#fff"/>
      <path id="Path_95" data-name="Path 95" d="M492.563,106.138l-11.794-6.7v1.774l11.794,6.7Z" transform="translate(-458.218 -62.137)" fill="#fff"/>
      <path id="Path_96" data-name="Path 96" d="M480.769,96.226l20.439,11.7v-1.773l-20.439-11.7Z" transform="translate(-458.218 -60.841)" fill="#fff"/>
      <path id="Path_97" data-name="Path 97" d="M480.769,79.607v1.775l20.439,11.7V91.307Z" transform="translate(-458.218 -56.98)" fill="#fff"/>
      <path id="Path_98" data-name="Path 98" d="M480.769,86.363l20.439,11.7V96.29l-20.439-11.7Z" transform="translate(-458.218 -58.276)" fill="#fff"/>
      <path id="Path_99" data-name="Path 99" d="M471.018,79.227a9.3,9.3,0,0,1-1.9-2.289c-.316-.529-.3-1.1,0-1.282a2.447,2.447,0,0,0,.973-1.089c.334.093.748-.03.748-.489a1.817,1.817,0,0,0-.482-1.237,6.089,6.089,0,0,0-3.067-5.4c-2.3-1.333-2.983-.062-3.064,1.848-.276-.061-.482.21-.482.678a2.217,2.217,0,0,0,.749,1.356,10.8,10.8,0,0,0,.973,2.216c.305.534.317,1.121,0,1.285a2.5,2.5,0,0,1-1.906.081c-.966-.292-1.683.292-1.683,1.484v1.139a1.4,1.4,0,0,0,.629,1.091l9.565,5.538c.348.2.631.04.631-.36V82.661A4.923,4.923,0,0,0,471.018,79.227Z" transform="translate(-453.264 -53.673)" fill="#fff"/>
    </g>
    <path id="Path_100" data-name="Path 100" d="M432.762,81.129a3.36,3.36,0,0,0-1.329-1.827V77.59c.431.129.752-.127.752-.659a2.174,2.174,0,0,0-.98-1.7c-.542-.313-.981-.061-.981.562a2.2,2.2,0,0,0,.752,1.529v1.713c-.659-.3-1.189-.184-1.328.289-2.3-.555-3.974.912-3.974,3.8,0,3.515,2.477,5.213,5.532,6.982s5.53,2.938,5.53-.578A12.4,12.4,0,0,0,432.762,81.129Zm.927,7.361-4.97-2.878a2.566,2.566,0,0,1-1.16-2.006c0-.736.52-1.034,1.16-.664l4.97,2.877a2.571,2.571,0,0,1,1.16,2.007C434.849,88.562,434.329,88.86,433.69,88.489Zm-4.618-4.625c-.321-.186-.584-.037-.584.334a1.3,1.3,0,0,0,.584,1.011c.323.186.586.038.586-.334A1.293,1.293,0,0,0,429.072,83.864Zm4.265,2.469c-.322-.186-.584-.037-.584.334a1.292,1.292,0,0,0,.584,1.011c.323.188.585.038.585-.334A1.293,1.293,0,0,0,433.337,86.333Z" transform="translate(-114.611 -19.533)" fill="#fff"/>
    <g id="Group_25" data-name="Group 25" transform="translate(381.693 37.921)">
      <path id="Path_101" data-name="Path 101" d="M526.659,51.767a8.133,8.133,0,0,1,3.156,3.824,8.569,8.569,0,0,0,1.047-.356,2.784,2.784,0,0,1,2.43.374,8.283,8.283,0,0,1,3.745,6.479c0,4.351-7.425,5.858-7.425,5.858s-7.063-9.467-7.063-13.817c0-1.188-.5-1.555.173-1.942.058-.033,1.4-.751,1.462-.777A2.766,2.766,0,0,1,526.659,51.767Z" transform="translate(-521.662 -51.251)" fill="#d62d69"/>
      <g id="Group_23" data-name="Group 23" transform="translate(7.672 11.107)">
        <path id="Path_102" data-name="Path 102" d="M532.213,78.3a.405.405,0,0,1-.071-.8c.449-.081.906-.182,1.362-.3a.406.406,0,0,1,.2.786c-.475.124-.952.229-1.422.314A.48.48,0,0,1,532.213,78.3Zm3.7-1.067a.406.406,0,0,1-.15-.782c.493-.2.976-.42,1.439-.659a.405.405,0,0,1,.37.721c-.483.249-.991.482-1.506.69A.416.416,0,0,1,535.909,77.234Zm3.538-1.947a.406.406,0,0,1-.238-.733,12.667,12.667,0,0,0,1.206-1,.4.4,0,1,1,.554.59,13.794,13.794,0,0,1-1.283,1.067A.4.4,0,0,1,539.448,75.286Zm2.826-2.875a.405.405,0,0,1-.334-.634,9.306,9.306,0,0,0,.767-1.349.4.4,0,1,1,.735.34,10.237,10.237,0,0,1-.833,1.466A.4.4,0,0,1,542.273,72.412Zm1.518-3.723a.436.436,0,0,1-.069-.005.407.407,0,0,1-.331-.469,9.247,9.247,0,0,0,.129-1.546.4.4,0,1,1,.809,0,10.008,10.008,0,0,1-.14,1.682A.407.407,0,0,1,543.792,68.688Z" transform="translate(-531.809 -66.263)" fill="#a8cff0"/>
      </g>
      <path id="Path_103" data-name="Path 103" d="M525.155,52.682a8.27,8.27,0,0,1,3.318,4.234c.625-1.011,1.875-1.227,3.316-.392A8.281,8.281,0,0,1,535.534,63c0,4.35-7.061,5.639-7.061,5.639s-7.063-9.467-7.063-13.818C521.41,52.443,523.088,51.484,525.155,52.682Z" transform="translate(-521.41 -51.489)" fill="#f76195"/>
      <g id="Group_24" data-name="Group 24" transform="translate(1.269 0.626)" style="mix-blend-mode: color-dodge;isolation: isolate">
        <path id="Path_104" data-name="Path 104" d="M525.4,52.753a8.572,8.572,0,0,1,3.484,4.24c.128-.206-.048-.129.128-.267a8.186,8.186,0,0,0-3.224-4c-1.13-.654-1.989-.809-2.659-.394A2.9,2.9,0,0,1,525.4,52.753Z" transform="translate(-523.13 -52.097)" fill="#fff" opacity="0.5"/>
        <path id="Path_105" data-name="Path 105" d="M534.7,57.841a2.5,2.5,0,0,0-2.569-.316,2.894,2.894,0,0,1,2.264.422,8.285,8.285,0,0,1,3.746,6.479c0,2.021-1.525,3.381-3.157,4.257,1.823-.857,3.462-2.115,3.462-4.364A8.282,8.282,0,0,0,534.7,57.841Z" transform="translate(-525.491 -53.449)" fill="#fff" opacity="0.5"/>
      </g>
    </g>
  </g>
</svg>
