<?xml version="1.0" encoding="utf-8"?>
<!-- Generator: Adobe Illustrator 23.0.3, SVG Export Plug-In . SVG Version: 6.00 Build 0)  -->
<svg version="1.1" id="圖層_1" xmlns="http://www.w3.org/2000/svg" xmlns:xlink="http://www.w3.org/1999/xlink" x="0px" y="0px"
	 viewBox="0 0 260.8 140.15" style="enable-background:new 0 0 260.8 140.15;" xml:space="preserve">
<style type="text/css">
	.st0{fill:#DCE7F4;}
	.st1{fill:#396CAA;}
	.st2{fill:#D4ECFF;}
	.st3{fill:#5793CE;}
	.st4{fill:#FAFDFF;}
	.st5{fill:#173D7A;}
	.st6{fill:#70EAD4;}
	.st7{fill:#EF75FF;}
	.st8{fill:#FFFFFF;}
	.st9{opacity:0.4;fill:#D4ECFF;}
	.st10{fill:#FF2C9C;}
	.st11{fill:#274F89;}
	.st12{fill:#B3E0FF;}
	.st13{opacity:0.6;}
	.st14{fill:#A2C7F9;}
	.st15{opacity:0.82;}
	.st16{fill:#6999F0;}
</style>
<g>
	<polygon class="st0" points="244.79,113.87 260.8,104.92 240.02,91.68 223.81,101.16 	"/>
	<polygon class="st0" points="158.8,110.74 174.8,101.78 154.02,88.54 137.81,98.02 	"/>
	<polygon class="st0" points="57.7,88.66 77.21,77.08 55.5,64.34 36.22,76.23 	"/>
	<polygon class="st0" points="48.31,53.3 64.42,43.72 45.86,32.93 34.73,45.43 	"/>
	<g>
		<g>
			<g>
				<g>
					<path class="st1" d="M181.89,120.79L181.89,120.79V43.78l30.62-8.01l5.64-3.26c1.29-0.75,3.55-0.65,5.05,0.21l5.26,3.04
						l16.33-0.01l-4.84,74.34c0.04,0.51-0.25,0.99-0.87,1.35l-30.55,23.05c-1.29,0.75-3.55,0.65-5.05-0.21l-20.36-11.76
						C182.26,122.03,181.84,121.39,181.89,120.79z"/>
					<path class="st2" d="M220.49,32.01c0.95,0.02,1.93,0.26,2.71,0.71l5.26,3.04l16.33-0.01v77.22c0.04,0.51-0.25,0.99-0.87,1.35
						l-35.39,20.18c-0.62,0.36-1.47,0.52-2.34,0.5l-0.36-77.7L220.49,32.01z"/>
					<path class="st3" d="M208.21,134.65c-1.12,0.48-2.73,0.45-4.04-0.05V56.38h4.04V134.65z"/>
					<path class="st2" d="M208.53,57.3l35.39-20.18c1.29-0.75,1.13-2.05-0.36-2.92L223.2,22.45c-1.49-0.86-3.76-0.96-5.05-0.21
						l-35.39,20.18c-1.29,0.75-1.13,2.05,0.36,2.92l20.36,11.76C204.98,57.96,207.24,58.05,208.53,57.3z"/>
					<path class="st4" d="M183.12,43.91l20.36,11.76c1.49,0.86,3.76,0.96,5.05,0.21l35.39-20.18c0.29-0.17,0.5-0.36,0.65-0.57
						c0.44,0.72,0.24,1.49-0.65,2L208.53,57.3c-1.29,0.75-3.55,0.65-5.05-0.21l-20.36-11.76c-1.16-0.67-1.51-1.61-1.01-2.34
						C182.31,43.32,182.65,43.64,183.12,43.91z"/>
					<g>
						<path class="st5" d="M207.53,49.13l23.56-13.66c0.61-0.35,0.53-0.96-0.17-1.36l-9.53-5.5c-0.7-0.4-1.76-0.45-2.36-0.1
							l-23.56,13.66c-0.61,0.35-0.53,0.96,0.17,1.36l9.53,5.5C205.87,49.43,206.92,49.48,207.53,49.13z"/>
						<g>
							<path class="st6" d="M220.25,36.08l1.37-0.79c0.08-0.05,0.07-0.13-0.02-0.19l-1.32-0.76c-0.1-0.06-0.24-0.06-0.33-0.01
								l-1.37,0.79c-0.08,0.05-0.07,0.13,0.02,0.19l1.32,0.76C220.02,36.12,220.17,36.13,220.25,36.08z"/>
							<path class="st7" d="M215.69,38.7l1.37-0.79c0.08-0.05,0.07-0.13-0.02-0.19l-1.32-0.76c-0.1-0.06-0.24-0.06-0.33-0.01
								l-1.37,0.79c-0.08,0.05-0.07,0.13,0.02,0.19l1.32,0.76C215.46,38.75,215.6,38.75,215.69,38.7z"/>
							<path class="st7" d="M211.13,41.33l1.37-0.79c0.08-0.05,0.07-0.13-0.02-0.19l-1.32-0.76c-0.1-0.06-0.24-0.06-0.33-0.01
								l-1.37,0.79c-0.08,0.05-0.07,0.13,0.02,0.19l1.32,0.76C210.9,41.37,211.04,41.38,211.13,41.33z"/>
							<path class="st6" d="M206.57,43.95l1.37-0.79c0.08-0.05,0.07-0.13-0.02-0.19l-1.32-0.76c-0.1-0.06-0.24-0.06-0.33-0.01
								l-1.37,0.79c-0.08,0.05-0.07,0.13,0.02,0.19l1.32,0.76C206.34,43.99,206.48,44,206.57,43.95z"/>
						</g>
						<path class="st3" d="M231.09,35.47l-0.03,0.02c-0.05-0.03-0.09-0.07-0.14-0.1l-9.53-5.5c-0.7-0.4-1.76-0.45-2.36-0.1
							L195.5,43.43c-0.56-0.4-0.59-0.94-0.03-1.27l23.56-13.66c0.61-0.35,1.66-0.31,2.36,0.1l9.53,5.5
							C231.62,34.51,231.7,35.12,231.09,35.47z"/>
					</g>
				</g>
				<g>
					<path class="st5" d="M199.51,72.56l-13.4-7.67c-0.75-0.44-1.36-1.6-1.36-2.61v-4.79c0-1.01,0.61-1.47,1.36-1.03l13.4,7.67
						c0.75,0.44,1.36,1.6,1.36,2.61v4.79C200.87,72.53,200.26,73,199.51,72.56z"/>
					<path class="st8" d="M185.45,56.32c-0.21,0.2-0.34,0.54-0.34,1v4.79c0,1.01,0.61,2.17,1.36,2.61l13.4,7.67
						c0.24,0.14,0.47,0.18,0.66,0.14c-0.25,0.24-0.61,0.27-1.02,0.04l-13.4-7.67c-0.75-0.44-1.36-1.6-1.36-2.61v-4.79
						C184.75,56.81,185.03,56.39,185.45,56.32z"/>
					<g>
						<path class="st6" d="M195.48,67.36l-1.23-0.71c-0.16-0.09-0.3-0.35-0.3-0.57v-1.31c0-0.22,0.13-0.32,0.3-0.22l1.23,0.71
							c0.16,0.09,0.3,0.35,0.3,0.57v1.31C195.77,67.35,195.64,67.45,195.48,67.36z"/>
						<path class="st6" d="M191.37,64.99l-1.23-0.71c-0.16-0.09-0.3-0.35-0.3-0.57v-1.31c0-0.22,0.13-0.32,0.3-0.22l1.23,0.71
							c0.16,0.09,0.3,0.35,0.3,0.57v1.31C191.67,64.98,191.53,65.08,191.37,64.99z"/>
					</g>
				</g>
				<g>
					<path class="st5" d="M199.51,107.18l-13.4-7.67c-0.75-0.44-1.36-1.6-1.36-2.61v-4.79c0-1.01,0.61-1.47,1.36-1.03l13.4,7.67
						c0.75,0.44,1.36,1.6,1.36,2.61v4.79C200.87,107.15,200.26,107.61,199.51,107.18z"/>
					<path class="st8" d="M185.45,90.93c-0.21,0.2-0.34,0.54-0.34,1v4.79c0,1.01,0.61,2.17,1.36,2.61l13.4,7.67
						c0.24,0.14,0.47,0.18,0.66,0.14c-0.25,0.24-0.61,0.27-1.02,0.04l-13.4-7.67c-0.75-0.44-1.36-1.6-1.36-2.61v-4.79
						C184.75,91.43,185.03,91,185.45,90.93z"/>
					<g>
						<path class="st7" d="M195.48,101.97l-1.23-0.71c-0.16-0.09-0.3-0.35-0.3-0.57v-1.31c0-0.22,0.13-0.32,0.3-0.22l1.23,0.71
							c0.16,0.09,0.3,0.35,0.3,0.57v1.31C195.77,101.97,195.64,102.07,195.48,101.97z"/>
						<path class="st6" d="M191.37,99.6l-1.23-0.71c-0.16-0.09-0.3-0.35-0.3-0.57v-1.31c0-0.22,0.13-0.32,0.3-0.22l1.23,0.71
							c0.16,0.09,0.3,0.35,0.3,0.57v1.31C191.67,99.6,191.53,99.7,191.37,99.6z"/>
					</g>
				</g>
				<g>
					<path class="st5" d="M199.51,124.49l-13.4-7.67c-0.75-0.44-1.36-1.6-1.36-2.61v-4.79c0-1.01,0.61-1.47,1.36-1.03l13.4,7.67
						c0.75,0.44,1.36,1.6,1.36,2.61v4.79C200.87,124.46,200.26,124.92,199.51,124.49z"/>
					<path class="st8" d="M185.45,108.24c-0.21,0.2-0.34,0.54-0.34,1v4.79c0,1,0.61,2.17,1.36,2.61l13.4,7.67
						c0.24,0.14,0.47,0.18,0.66,0.14c-0.25,0.24-0.61,0.27-1.02,0.04l-13.4-7.67c-0.75-0.44-1.36-1.6-1.36-2.61v-4.79
						C184.75,108.74,185.03,108.31,185.45,108.24z"/>
					<g>
						<path class="st6" d="M195.48,119.28l-1.23-0.71c-0.16-0.09-0.3-0.35-0.3-0.57v-1.31c0-0.22,0.13-0.32,0.3-0.22l1.23,0.71
							c0.16,0.09,0.3,0.35,0.3,0.57v1.31C195.77,119.28,195.64,119.38,195.48,119.28z"/>
						<path class="st6" d="M191.37,116.91l-1.23-0.71c-0.16-0.09-0.3-0.35-0.3-0.57v-1.31c0-0.22,0.13-0.32,0.3-0.22l1.23,0.71
							c0.16,0.09,0.3,0.35,0.3,0.57v1.31C191.67,116.9,191.53,117.01,191.37,116.91z"/>
					</g>
				</g>
				<g>
					<path class="st5" d="M199.51,89.87l-13.4-7.67c-0.75-0.44-1.36-1.6-1.36-2.61V74.8c0-1.01,0.61-1.47,1.36-1.03l13.4,7.67
						c0.75,0.44,1.36,1.6,1.36,2.61v4.79C200.87,89.84,200.26,90.31,199.51,89.87z"/>
					<path class="st8" d="M185.45,73.63c-0.21,0.2-0.34,0.54-0.34,1v4.79c0,1.01,0.61,2.17,1.36,2.61l13.4,7.67
						c0.24,0.14,0.47,0.18,0.66,0.14c-0.25,0.24-0.61,0.27-1.02,0.04l-13.4-7.67c-0.75-0.44-1.36-1.6-1.36-2.61V74.8
						C184.75,74.12,185.03,73.7,185.45,73.63z"/>
					<g>
						<path class="st7" d="M195.48,84.67l-1.23-0.71c-0.16-0.09-0.3-0.35-0.3-0.57v-1.31c0-0.22,0.13-0.32,0.3-0.22l1.23,0.71
							c0.16,0.09,0.3,0.35,0.3,0.57v1.31C195.77,84.66,195.64,84.76,195.48,84.67z"/>
						<path class="st6" d="M191.37,82.29l-1.23-0.71c-0.16-0.09-0.3-0.35-0.3-0.57V79.7c0-0.22,0.13-0.32,0.3-0.22l1.23,0.71
							c0.16,0.09,0.3,0.35,0.3,0.57v1.31C191.67,82.29,191.53,82.39,191.37,82.29z"/>
					</g>
				</g>
			</g>
			<g>
				<path class="st3" d="M211.11,67.66l30.91-17.84c0.69-0.4,1.25-1.47,1.25-2.39v-5.89c0-0.92-0.56-1.35-1.25-0.95l-30.91,17.84
					c-0.69,0.4-1.25,1.47-1.25,2.39v5.89C209.86,67.63,210.42,68.06,211.11,67.66z"/>
				<path class="st9" d="M212,65.59l29.13-16.82c0.35-0.2,0.64-0.75,0.64-1.21v-4.43c0-0.47-0.28-0.68-0.64-0.48L212,59.47
					c-0.35,0.2-0.64,0.75-0.64,1.21v4.43C211.36,65.58,211.64,65.79,212,65.59z"/>
				<path class="st2" d="M235.06,50.04l4.35-2.51c0.34-0.2,0.62-0.72,0.62-1.18l0,0c0-0.45-0.28-0.66-0.62-0.47l-4.35,2.51
					c-0.34,0.2-0.62,0.72-0.62,1.18l0,0C234.44,50.03,234.72,50.23,235.06,50.04z"/>
				<path class="st5" d="M231.35,51.35c0,0.45,0.32,0.64,0.71,0.41c0.39-0.23,0.71-0.78,0.71-1.23c0-0.45-0.32-0.64-0.71-0.41
					C231.67,50.35,231.35,50.9,231.35,51.35z"/>
				<path class="st5" d="M228.84,52.81c0,0.45,0.32,0.64,0.71,0.41c0.39-0.23,0.71-0.78,0.71-1.23c0-0.45-0.32-0.64-0.71-0.41
					C229.16,51.8,228.84,52.35,228.84,52.81z"/>
				<path class="st2" d="M226.32,54.26c0,0.45,0.32,0.64,0.71,0.41c0.39-0.23,0.71-0.78,0.71-1.23c0-0.45-0.32-0.64-0.71-0.41
					C226.64,53.25,226.32,53.8,226.32,54.26z"/>
				<path class="st5" d="M223.81,55.71c0,0.45,0.32,0.64,0.71,0.41c0.39-0.23,0.71-0.78,0.71-1.23c0-0.45-0.32-0.64-0.71-0.41
					C224.13,54.7,223.81,55.25,223.81,55.71z"/>
				<path class="st5" d="M213.22,63.12l1.46-0.85c0.22-0.13,0.4-0.47,0.4-0.76v-1.55c0-0.29-0.18-0.43-0.4-0.3l-1.46,0.85
					c-0.22,0.13-0.4,0.47-0.4,0.76v1.55C212.82,63.12,213,63.25,213.22,63.12z"/>
			</g>
			<g>
				<path class="st3" d="M211.11,78.05l30.91-17.84c0.69-0.4,1.25-1.47,1.25-2.39v-5.89c0-0.92-0.56-1.35-1.25-0.95l-30.91,17.84
					c-0.69,0.4-1.25,1.47-1.25,2.39v5.89C209.86,78.03,210.42,78.45,211.11,78.05z"/>
				<path class="st9" d="M212,75.98l29.13-16.82c0.35-0.2,0.64-0.75,0.64-1.21v-4.43c0-0.47-0.28-0.68-0.64-0.48L212,69.86
					c-0.35,0.2-0.64,0.75-0.64,1.21v4.43C211.36,75.97,211.64,76.19,212,75.98z"/>
				<path class="st2" d="M235.06,60.43l4.35-2.51c0.34-0.2,0.62-0.72,0.62-1.18l0,0c0-0.45-0.28-0.66-0.62-0.47l-4.35,2.51
					c-0.34,0.2-0.62,0.72-0.62,1.18l0,0C234.44,60.42,234.72,60.63,235.06,60.43z"/>
				<path class="st8" d="M231.35,61.75c0,0.45,0.32,0.64,0.71,0.41c0.39-0.23,0.71-0.78,0.71-1.23c0-0.45-0.32-0.64-0.71-0.41
					C231.67,60.74,231.35,61.29,231.35,61.75z"/>
				<path class="st5" d="M228.84,63.2c0,0.45,0.32,0.64,0.71,0.41c0.39-0.23,0.71-0.78,0.71-1.23s-0.32-0.64-0.71-0.41
					C229.16,62.19,228.84,62.74,228.84,63.2z"/>
				<path class="st2" d="M226.32,64.65c0,0.45,0.32,0.64,0.71,0.41c0.39-0.23,0.71-0.78,0.71-1.23c0-0.45-0.32-0.64-0.71-0.41
					C226.64,63.64,226.32,64.19,226.32,64.65z"/>
				<path class="st5" d="M223.81,66.1c0,0.45,0.32,0.64,0.71,0.41c0.39-0.23,0.71-0.78,0.71-1.23c0-0.45-0.32-0.64-0.71-0.41
					C224.13,65.09,223.81,65.65,223.81,66.1z"/>
				<path class="st5" d="M213.22,73.52l1.46-0.85c0.22-0.13,0.4-0.47,0.4-0.76v-1.55c0-0.29-0.18-0.43-0.4-0.3l-1.46,0.85
					c-0.22,0.13-0.4,0.47-0.4,0.76v1.55C212.82,73.51,213,73.64,213.22,73.52z"/>
			</g>
			<g>
				<path class="st3" d="M211.11,88.44l30.91-17.84c0.69-0.4,1.25-1.47,1.25-2.39v-5.89c0-0.92-0.56-1.35-1.25-0.95l-30.91,17.84
					c-0.69,0.4-1.25,1.47-1.25,2.39v5.89C209.86,88.42,210.42,88.84,211.11,88.44z"/>
				<path class="st9" d="M212,86.38l29.13-16.82c0.35-0.2,0.64-0.75,0.64-1.21v-4.43c0-0.47-0.28-0.68-0.64-0.48L212,80.25
					c-0.35,0.2-0.64,0.75-0.64,1.21v4.43C211.36,86.36,211.64,86.58,212,86.38z"/>
				<path class="st2" d="M235.06,70.82l4.35-2.51c0.34-0.2,0.62-0.72,0.62-1.18l0,0c0-0.45-0.28-0.66-0.62-0.47l-4.35,2.51
					c-0.34,0.2-0.62,0.72-0.62,1.18l0,0C234.44,70.81,234.72,71.02,235.06,70.82z"/>
				<path class="st8" d="M231.35,72.14c0,0.45,0.32,0.64,0.71,0.41c0.39-0.23,0.71-0.78,0.71-1.23c0-0.45-0.32-0.64-0.71-0.41
					C231.67,71.13,231.35,71.68,231.35,72.14z"/>
				<path class="st5" d="M228.84,73.59c0,0.45,0.32,0.64,0.71,0.41c0.39-0.23,0.71-0.78,0.71-1.23c0-0.45-0.32-0.64-0.71-0.41
					C229.16,72.58,228.84,73.13,228.84,73.59z"/>
				<path class="st2" d="M226.32,75.04c0,0.45,0.32,0.64,0.71,0.41c0.39-0.23,0.71-0.78,0.71-1.23c0-0.45-0.32-0.64-0.71-0.41
					C226.64,74.03,226.32,74.59,226.32,75.04z"/>
				<path class="st5" d="M223.81,76.49c0,0.45,0.32,0.64,0.71,0.41c0.39-0.23,0.71-0.78,0.71-1.23c0-0.45-0.32-0.64-0.71-0.41
					C224.13,75.48,223.81,76.04,223.81,76.49z"/>
				<path class="st5" d="M213.22,83.91l1.46-0.85c0.22-0.13,0.4-0.47,0.4-0.76v-1.55c0-0.29-0.18-0.43-0.4-0.3l-1.46,0.85
					c-0.22,0.13-0.4,0.47-0.4,0.76v1.55C212.82,83.9,213,84.03,213.22,83.91z"/>
			</g>
			<g>
				<path class="st3" d="M211.11,98.83l30.91-17.84c0.69-0.4,1.25-1.47,1.25-2.39V72.7c0-0.92-0.56-1.35-1.25-0.95L211.11,89.6
					c-0.69,0.4-1.25,1.47-1.25,2.39v5.89C209.86,98.81,210.42,99.23,211.11,98.83z"/>
				<path class="st9" d="M212,96.77l29.13-16.82c0.35-0.2,0.64-0.75,0.64-1.21V74.3c0-0.47-0.28-0.68-0.64-0.48L212,90.64
					c-0.35,0.2-0.64,0.75-0.64,1.21v4.43C211.36,96.75,211.64,96.97,212,96.77z"/>
				<path class="st2" d="M235.06,81.21l4.35-2.51c0.34-0.2,0.62-0.72,0.62-1.18l0,0c0-0.45-0.28-0.66-0.62-0.47l-4.35,2.51
					c-0.34,0.2-0.62,0.72-0.62,1.18l0,0C234.44,81.2,234.72,81.41,235.06,81.21z"/>
				<path class="st5" d="M231.35,82.53c0,0.45,0.32,0.64,0.71,0.41c0.39-0.23,0.71-0.78,0.71-1.23c0-0.45-0.32-0.64-0.71-0.41
					C231.67,81.52,231.35,82.08,231.35,82.53z"/>
				<path class="st5" d="M228.84,83.98c0,0.45,0.32,0.64,0.71,0.41c0.39-0.23,0.71-0.78,0.71-1.23s-0.32-0.64-0.71-0.41
					C229.16,82.97,228.84,83.53,228.84,83.98z"/>
				<path class="st2" d="M226.32,85.43c0,0.45,0.32,0.64,0.71,0.41c0.39-0.23,0.71-0.78,0.71-1.23c0-0.45-0.32-0.64-0.71-0.41
					C226.64,84.43,226.32,84.98,226.32,85.43z"/>
				<path class="st5" d="M223.81,86.88c0,0.45,0.32,0.64,0.71,0.41c0.39-0.23,0.71-0.78,0.71-1.23c0-0.45-0.32-0.64-0.71-0.41
					C224.13,85.88,223.81,86.43,223.81,86.88z"/>
				<path class="st2" d="M213.22,94.3l1.46-0.85c0.22-0.13,0.4-0.47,0.4-0.76v-1.55c0-0.29-0.18-0.43-0.4-0.3l-1.46,0.85
					c-0.22,0.13-0.4,0.47-0.4,0.76V94C212.82,94.29,213,94.43,213.22,94.3z"/>
			</g>
			<g>
				<path class="st3" d="M211.11,109.23l30.91-17.84c0.69-0.4,1.25-1.47,1.25-2.39V83.1c0-0.92-0.56-1.35-1.25-0.95l-30.91,17.84
					c-0.69,0.4-1.25,1.47-1.25,2.39v5.89C209.86,109.2,210.42,109.63,211.11,109.23z"/>
				<path class="st9" d="M212,107.16l29.13-16.82c0.35-0.2,0.64-0.75,0.64-1.21V84.7c0-0.47-0.28-0.68-0.64-0.48L212,101.03
					c-0.35,0.2-0.64,0.75-0.64,1.21v4.43C211.36,107.15,211.64,107.36,212,107.16z"/>
				<path class="st2" d="M235.06,91.61l4.35-2.51c0.34-0.2,0.62-0.72,0.62-1.18l0,0c0-0.45-0.28-0.66-0.62-0.47l-4.35,2.51
					c-0.34,0.2-0.62,0.72-0.62,1.18l0,0C234.44,91.59,234.72,91.8,235.06,91.61z"/>
				<path class="st5" d="M231.35,92.92c0,0.45,0.32,0.64,0.71,0.41c0.39-0.23,0.71-0.78,0.71-1.23c0-0.45-0.32-0.64-0.71-0.41
					C231.67,91.92,231.35,92.47,231.35,92.92z"/>
				<path class="st8" d="M228.84,94.37c0,0.45,0.32,0.64,0.71,0.41c0.39-0.23,0.71-0.78,0.71-1.23c0-0.45-0.32-0.64-0.71-0.41
					C229.16,93.37,228.84,93.92,228.84,94.37z"/>
				<path class="st2" d="M226.32,95.82c0,0.45,0.32,0.64,0.71,0.41c0.39-0.23,0.71-0.78,0.71-1.23c0-0.45-0.32-0.64-0.71-0.41
					C226.64,94.82,226.32,95.37,226.32,95.82z"/>
				<path class="st8" d="M223.81,97.28c0,0.45,0.32,0.64,0.71,0.41c0.39-0.23,0.71-0.78,0.71-1.23c0-0.45-0.32-0.64-0.71-0.41
					C224.13,96.27,223.81,96.82,223.81,97.28z"/>
				<path class="st2" d="M213.22,104.69l1.46-0.85c0.22-0.13,0.4-0.47,0.4-0.76v-1.55c0-0.29-0.18-0.43-0.4-0.3l-1.46,0.85
					c-0.22,0.13-0.4,0.47-0.4,0.76v1.55C212.82,104.68,213,104.82,213.22,104.69z"/>
			</g>
			<g>
				<path class="st3" d="M211.11,119.62l30.91-17.84c0.69-0.4,1.25-1.47,1.25-2.39v-5.89c0-0.92-0.56-1.35-1.25-0.95l-30.91,17.84
					c-0.69,0.4-1.25,1.47-1.25,2.39v5.89C209.86,119.59,210.42,120.02,211.11,119.62z"/>
				<path class="st9" d="M212,117.55l29.13-16.82c0.35-0.2,0.64-0.75,0.64-1.21v-4.43c0-0.47-0.28-0.68-0.64-0.48L212,111.43
					c-0.35,0.2-0.64,0.75-0.64,1.21v4.43C211.36,117.54,211.64,117.75,212,117.55z"/>
				<path class="st2" d="M235.06,102l4.35-2.51c0.34-0.2,0.62-0.72,0.62-1.18l0,0c0-0.45-0.28-0.66-0.62-0.47l-4.35,2.51
					c-0.34,0.2-0.62,0.72-0.62,1.18l0,0C234.44,101.99,234.72,102.19,235.06,102z"/>
				<path class="st5" d="M231.35,103.31c0,0.45,0.32,0.64,0.71,0.41c0.39-0.23,0.71-0.78,0.71-1.23s-0.32-0.64-0.71-0.41
					C231.67,102.31,231.35,102.86,231.35,103.31z"/>
				<path class="st5" d="M228.84,104.77c0,0.45,0.32,0.64,0.71,0.41c0.39-0.23,0.71-0.78,0.71-1.23c0-0.45-0.32-0.64-0.71-0.41
					C229.16,103.76,228.84,104.31,228.84,104.77z"/>
				<path class="st2" d="M226.32,106.22c0,0.45,0.32,0.64,0.71,0.41c0.39-0.23,0.71-0.78,0.71-1.23c0-0.45-0.32-0.64-0.71-0.41
					C226.64,105.21,226.32,105.76,226.32,106.22z"/>
				<path class="st5" d="M223.81,107.67c0,0.45,0.32,0.64,0.71,0.41c0.39-0.23,0.71-0.78,0.71-1.23c0-0.45-0.32-0.64-0.71-0.41
					C224.13,106.66,223.81,107.21,223.81,107.67z"/>
				<path class="st5" d="M213.22,115.08l1.46-0.85c0.22-0.13,0.4-0.47,0.4-0.76v-1.55c0-0.29-0.18-0.43-0.4-0.3l-1.46,0.85
					c-0.22,0.13-0.4,0.47-0.4,0.76v1.55C212.82,115.08,213,115.21,213.22,115.08z"/>
			</g>
			<g>
				<path class="st3" d="M211.11,130.01l30.91-17.84c0.69-0.4,1.25-1.47,1.25-2.39v-5.89c0-0.92-0.56-1.35-1.25-0.95l-30.91,17.84
					c-0.69,0.4-1.25,1.47-1.25,2.39v5.89C209.86,129.98,210.42,130.41,211.11,130.01z"/>
				<path class="st9" d="M212,127.94l29.13-16.82c0.35-0.2,0.64-0.75,0.64-1.21v-4.43c0-0.47-0.28-0.68-0.64-0.48L212,121.82
					c-0.35,0.2-0.64,0.75-0.64,1.21v4.43C211.36,127.93,211.64,128.15,212,127.94z"/>
				<path class="st2" d="M235.06,112.39l4.35-2.51c0.34-0.2,0.62-0.72,0.62-1.18l0,0c0-0.45-0.28-0.66-0.62-0.47l-4.35,2.51
					c-0.34,0.2-0.62,0.72-0.62,1.18l0,0C234.44,112.38,234.72,112.59,235.06,112.39z"/>
				<path class="st8" d="M230.56,114.27c0,0.86,0.6,1.21,1.35,0.78c0.74-0.43,1.35-1.47,1.35-2.33c0-0.86-0.6-1.21-1.35-0.78
					C231.16,112.37,230.56,113.41,230.56,114.27z"/>
				<path class="st5" d="M225.35,117.32c0,0.45,0.32,0.64,0.71,0.41c0.39-0.23,0.71-0.78,0.71-1.23s-0.32-0.64-0.71-0.41
					C225.67,116.31,225.35,116.86,225.35,117.32z"/>
				<path class="st2" d="M222.84,118.77c0,0.45,0.32,0.64,0.71,0.41c0.39-0.23,0.71-0.78,0.71-1.23c0-0.45-0.32-0.64-0.71-0.41
					C223.16,117.76,222.84,118.31,222.84,118.77z"/>
				<path class="st5" d="M220.32,120.22c0,0.45,0.32,0.64,0.71,0.41c0.39-0.23,0.71-0.78,0.71-1.23c0-0.45-0.32-0.64-0.71-0.41
					C220.64,119.21,220.32,119.76,220.32,120.22z"/>
				<path class="st2" d="M213.22,125.48l1.46-0.85c0.22-0.13,0.4-0.47,0.4-0.76v-1.55c0-0.29-0.18-0.43-0.4-0.3l-1.46,0.85
					c-0.22,0.13-0.4,0.47-0.4,0.76v1.55C212.82,125.47,213,125.6,213.22,125.48z"/>
			</g>
		</g>
		<path class="st2" d="M153.58,58.67c-0.93,0.54-2.45,0.54-3.38,0c-0.93-0.54-0.93-1.41,0-1.95c0.93-0.54,2.45-0.54,3.38,0
			C154.52,57.26,154.52,58.13,153.58,58.67z"/>
		<g>
			<g>
				<g>
					<polygon class="st3" points="168.23,45.51 173.65,42.32 168.49,35.87 167.13,38.09 					"/>
					<path class="st3" d="M128.82,10.11l8.66-4.98c0,0-0.33,4.97-0.33,4.98s-4.98,1.54-4.98,1.54L128.82,10.11z"/>
					<path class="st3" d="M169.74,29.29c-0.66-0.38-1.29-0.6-1.87-0.69c-0.87-4.59-4.07-9.46-7.87-11.66
						c-1.15-0.66-2.23-1.01-3.22-1.09c-0.52-5.56-4.39-11.89-9.09-14.6c-2.45-1.42-4.68-1.58-6.32-0.72l0,0l-0.08,0.05
						c-0.04,0.02-0.08,0.05-0.12,0.07l-5.11,3.02l1.7,1.34c-1.52,0.67-2.49,2.37-2.49,4.9c0,4.66,3.27,10.32,7.3,12.65l27.18,19.41
						c3.03,1.75,5.48,0.33,5.48-3.17C175.22,35.29,172.77,31.04,169.74,29.29z"/>
					<path class="st3" d="M135.51,7.85L147.23,1c-2.28-1.19-4.33-1.28-5.87-0.47l0,0l-0.08,0.05c-0.04,0.02-0.08,0.05-0.12,0.07
						l-5.11,3.02l1.7,1.34C136.68,5.47,135.89,6.44,135.51,7.85z"/>
					<path class="st3" d="M157.16,28l8.55-5.02c-1.47-2.54-3.49-4.75-5.72-6.05c-0.3-0.17-0.59-0.32-0.88-0.45l-10.88,6.36
						L157.16,28z"/>
					<path class="st2" d="M138.46,4.22l3.81,2.2l6.98-4.11c-0.51-0.4-1.03-0.75-1.57-1.06c-0.85-0.49-1.66-0.82-2.44-1.02
						L138.46,4.22z"/>
					<path class="st2" d="M164.77,21.5l-6.83,4.02l2.37,2.65l6.2-3.66C166.02,23.47,165.43,22.45,164.77,21.5z"/>
					<path class="st2" d="M164.37,32.45c-0.66-0.38-1.29-0.6-1.87-0.69c-0.87-4.59-4.07-9.46-7.87-11.66
						c-1.15-0.66-2.23-1.01-3.22-1.09c-0.52-5.56-4.39-11.89-9.09-14.6c-5.05-2.92-9.15-0.55-9.15,5.28c0,0.2,0.01,0.4,0.01,0.6
						c-3.69-1.71-6.58,0.22-6.58,4.59c0,4.66,3.27,10.32,7.3,12.65l30.46,17.59c3.03,1.75,5.48,0.33,5.48-3.17
						C169.86,38.45,167.4,34.2,164.37,32.45z"/>
					<g>
						<path class="st8" d="M133.19,10.28c-0.01-0.2-0.01-0.4-0.01-0.6c0-0.01,0-0.02,0-0.02c-2.04-0.79-3.79-0.45-4.9,0.83
							C129.47,9.5,131.21,9.37,133.19,10.28z"/>
						<path class="st8" d="M164.82,32.02c-0.66-0.38-1.29-0.6-1.87-0.69c-0.87-4.59-4.07-9.46-7.87-11.66
							c-1.15-0.66-2.23-1.01-3.22-1.09c-0.52-5.56-4.39-11.89-9.09-14.6c-3.15-1.82-5.92-1.58-7.57,0.26
							c1.68-1.43,4.24-1.49,7.12,0.17c4.7,2.71,8.57,9.03,9.09,14.6c0.99,0.08,2.08,0.43,3.22,1.09c3.81,2.2,7,7.07,7.87,11.66
							c0.59,0.09,1.21,0.31,1.87,0.69c3.03,1.75,5.48,6,5.48,9.5c0,1.26-0.32,2.25-0.87,2.92c0.82-0.63,1.32-1.78,1.32-3.35
							C170.3,38.02,167.85,33.76,164.82,32.02z"/>
					</g>
					<g>
						<path class="st5" d="M132.54,11.67l2.29,1.06l-0.12-2.52c-0.01-0.18-0.01-0.35-0.01-0.53c0-2.25,0.68-3.88,1.91-4.6
							c1.23-0.71,2.99-0.48,4.94,0.64c4.19,2.42,7.85,8.31,8.33,13.41l0.12,1.29l1.29,0.1c0.79,0.06,1.66,0.36,2.57,0.89
							c3.33,1.92,6.33,6.39,7.14,10.62l0.2,1.06l1.07,0.17c0.42,0.07,0.88,0.24,1.35,0.51c2.56,1.48,4.72,5.22,4.72,8.17
							c0,1.11-0.31,1.92-0.84,2.22c-0.53,0.31-1.39,0.17-2.35-0.38L134.67,26.2c-3.54-2.05-6.54-7.23-6.54-11.32
							c0-1.61,0.47-2.83,1.3-3.36c0.34-0.22,0.75-0.32,1.21-0.32C131.21,11.2,131.86,11.36,132.54,11.67z"/>
					</g>
				</g>
				<g>
					<polygon class="st3" points="147.75,30.77 148.55,30.36 147.76,29.76 					"/>
					<polygon class="st3" points="145.33,19.91 146.11,19.52 146.13,19.92 					"/>
					<polygon class="st3" points="150.04,28.23 150.85,27.82 149.29,26.33 					"/>
					<g>
						<path class="st3" d="M148.31,30.34l-3.8-2.24c-0.19-0.11-0.35-0.4-0.35-0.64l0.01-4.4l4.5,2.65l-0.01,4.41
							C148.66,30.35,148.51,30.45,148.31,30.34z"/>
						<path class="st3" d="M146.1,19.52l-4.11,2.64c-0.17,0.11-0.03,0.53,0.23,0.69l4.2,2.47l4.2,2.47c0.26,0.16,0.41-0.1,0.23-0.41
							l-4.08-7.47C146.6,19.59,146.28,19.41,146.1,19.52z"/>
					</g>
					<g>
						<path class="st2" d="M147.5,30.75l-3.8-2.24c-0.19-0.11-0.35-0.4-0.35-0.64l0.01-4.4l4.5,2.65l-0.01,4.4
							C147.85,30.76,147.69,30.86,147.5,30.75z"/>
						<path class="st2" d="M145.29,19.93l-4.11,2.64c-0.17,0.11-0.03,0.53,0.23,0.69l4.2,2.47l4.2,2.47
							c0.26,0.16,0.41-0.1,0.23-0.41l-4.08-7.47C145.78,20,145.47,19.82,145.29,19.93z"/>
					</g>
				</g>
			</g>
		</g>
		<g>
			<g>
				<path class="st1" d="M73.89,74.54L73.89,74.54v-5.86l-13.15-0.01l-4.54-2.62c-1.04-0.6-2.86-0.53-4.07,0.17l-4.24,2.45
					l-13.16-0.01v6.03c-0.03,0.41,0.2,0.8,0.7,1.09l16.99,9.81c1.04,0.6,2.86,0.53,4.07-0.17l16.41-9.47
					C73.6,75.55,73.93,75.03,73.89,74.54z"/>
				<path class="st1" d="M54.31,65.65c-0.76,0.02-1.56,0.21-2.18,0.57l-4.24,2.45l-13.16-0.01v6.03c-0.03,0.41,0.2,0.8,0.7,1.09
					l16.99,9.81c0.5,0.29,1.18,0.42,1.89,0.4V65.65z"/>
				<path class="st3" d="M36.22,68.66l-1.49,0v6.03c-0.03,0.41,0.2,0.8,0.7,1.09l0.79,0.46V68.66z"/>
				<path class="st3" d="M52.69,85.72c0.9,0.39,2.2,0.36,3.25-0.04v-6.85h-3.25V85.72z"/>
				<path class="st2" d="M52.42,79.58l-16.99-9.81c-1.04-0.6-0.91-1.65,0.29-2.35l16.41-9.47c1.2-0.7,3.03-0.77,4.07-0.17
					l16.99,9.81c1.04,0.6,0.91,1.65-0.29,2.35l-16.41,9.47C55.29,80.11,53.47,80.18,52.42,79.58z"/>
				<path class="st8" d="M72.9,68.79l-16.41,9.47c-1.2,0.7-3.03,0.77-4.07,0.17l-16.99-9.81c-0.23-0.13-0.4-0.29-0.52-0.46
					c-0.36,0.58-0.2,1.2,0.52,1.62l16.99,9.81c1.04,0.6,2.86,0.53,4.07-0.17l16.41-9.47c0.94-0.54,1.22-1.3,0.81-1.89
					C73.55,68.31,73.28,68.57,72.9,68.79z"/>
				<g>
					<path class="st2" d="M67.64,76.09c0,0.44-0.31,0.97-0.69,1.19s-0.69,0.04-0.69-0.4c0-0.44,0.31-0.97,0.69-1.19
						C67.33,75.48,67.64,75.65,67.64,76.09z"/>
					<path class="st2" d="M69.85,74.82c0,0.44-0.31,0.97-0.69,1.19c-0.38,0.22-0.69,0.04-0.69-0.4c0-0.44,0.31-0.97,0.69-1.19
						C69.54,74.2,69.85,74.38,69.85,74.82z"/>
					<path class="st2" d="M72.06,73.54c0,0.44-0.31,0.97-0.69,1.19c-0.38,0.22-0.69,0.04-0.69-0.4c0-0.44,0.31-0.97,0.69-1.19
						C71.75,72.93,72.06,73.1,72.06,73.54z"/>
				</g>
				<g>
					<path class="st3" d="M53.43,73.5l-7.95-4.59c-0.49-0.28-0.43-0.77,0.14-1.1l7.68-4.43c0.56-0.33,1.42-0.36,1.9-0.08l7.95,4.59
						c0.49,0.28,0.43,0.77-0.14,1.1l-7.68,4.43C54.77,73.74,53.92,73.78,53.43,73.5z"/>
					<path class="st2" d="M54.19,69.65l-1.1-0.64c-0.07-0.04-0.06-0.11,0.02-0.15l1.06-0.61c0.08-0.05,0.2-0.05,0.26-0.01l1.1,0.64
						c0.07,0.04,0.06,0.11-0.02,0.15l-1.06,0.61C54.38,69.69,54.26,69.69,54.19,69.65z"/>
					<path class="st1" d="M45.48,68.91l0.02,0.01c0.04-0.03,0.07-0.05,0.11-0.08l7.68-4.43c0.56-0.33,1.42-0.36,1.9-0.08l7.93,4.58
						c0.45-0.32,0.47-0.76,0.02-1.02L55.2,63.3c-0.49-0.28-1.34-0.25-1.9,0.08l-7.68,4.43C45.05,68.13,44.99,68.63,45.48,68.91z"/>
				</g>
			</g>
		</g>
	</g>
	<g>
		<g>
			<g>
				<path class="st5" d="M59.07,41.32l-1.92-1.11l7.08-4.09c0.33-0.19,0.33-0.51,0-0.7L57,31.24c-0.33-0.19-0.88-0.19-1.21,0
					l-7.08,4.09l-1.92-1.11l7.08-4.09c1.39-0.8,3.66-0.8,5.06,0l7.24,4.18c1.39,0.8,1.39,2.11,0,2.92L59.07,41.32z"/>
			</g>
			<g>
				<path class="st2" d="M62.17,41.81c0-1.03-0.62-2.22-1.4-2.67l-12.84-7.41c-0.35-0.2-0.66-0.21-0.9-0.08l0,0l-15.33,8.91
					l14.82,11.17l15.1-8.76c0.05-0.02,0.09-0.05,0.13-0.08l0,0l0,0C62.02,42.69,62.17,42.32,62.17,41.81z"/>
				<path class="st1" d="M46.53,51.73l15.1-8.76c0.05-0.02,0.09-0.05,0.13-0.08l0,0l0,0c0.25-0.19,0.41-0.57,0.41-1.08
					c0-0.49-0.14-1.02-0.38-1.48l-17.21,9.94L46.53,51.73z"/>
				<path class="st5" d="M45.57,51.69l-12.84-7.41c-0.77-0.44-1.4-1.64-1.4-2.67l0,0c0-1.03,0.62-1.5,1.4-1.05l12.84,7.41
					c0.77,0.44,1.4,1.64,1.4,2.67l0,0C46.96,51.66,46.34,52.13,45.57,51.69z"/>
				<path class="st8" d="M45.72,47.9l-12.84-7.41c-0.35-0.2-0.68-0.21-0.92-0.07c0.22-0.07,0.48-0.03,0.77,0.14l12.84,7.41
					c0.77,0.44,1.4,1.64,1.4,2.67v0c0,0.55-0.18,0.95-0.47,1.12c0.38-0.11,0.63-0.54,0.63-1.19v0
					C47.12,49.54,46.49,48.34,45.72,47.9z"/>
			</g>
			<path class="st10" d="M43.64,49.19L42.1,48.3c-0.15-0.09-0.28-0.33-0.28-0.53l0,0c0-0.2,0.12-0.3,0.28-0.21l1.54,0.89
				c0.15,0.09,0.28,0.33,0.28,0.53l0,0C43.92,49.18,43.8,49.28,43.64,49.19z"/>
		</g>
		<g>
			<path class="st3" d="M45.62,38.78c0.4-0.24,0.4-0.62-0.01-0.85c-0.41-0.23-1.07-0.22-1.47,0.02c-0.4,0.24-0.4,0.62,0.01,0.85
				C44.55,39.03,45.21,39.02,45.62,38.78z"/>
			<path class="st8" d="M47.86,40.04c0.4-0.24,0.4-0.62-0.01-0.85c-0.41-0.23-1.07-0.22-1.47,0.02c-0.4,0.24-0.4,0.62,0.01,0.85
				C46.79,40.29,47.45,40.28,47.86,40.04z"/>
			<path class="st8" d="M50.09,41.3c0.4-0.24,0.4-0.62-0.01-0.85c-0.41-0.23-1.07-0.22-1.47,0.02c-0.4,0.24-0.4,0.62,0.01,0.85
				C49.03,41.55,49.69,41.54,50.09,41.3z"/>
		</g>
	</g>
	<g>
		<g>
			<path class="st5" d="M171.08,56.41l-52.11-30.08c-0.61-0.35-1.22-0.4-1.77-0.22l0-0.01l-0.09,0.04c-0.01,0-0.02,0.01-0.02,0.01
				l-1.88,0.72l1.69,0.83c-0.01,0.03-0.02,0.06-0.02,0.09l-9.21,41.87c-0.42,1.93,0.43,4.19,1.9,5.04l50.85,29.36l-0.18,2.15
				l2.06-0.8c0.69-0.32,1.24-1.05,1.47-2.1l9.21-41.87C173.4,59.51,172.55,57.26,171.08,56.41z"/>
			<path class="st1" d="M171.08,56.41l-52.11-30.08c-0.61-0.35-1.22-0.4-1.77-0.22l0-0.01l-0.09,0.04c-0.01,0-0.02,0.01-0.02,0.01
				l-1.88,0.72l1.69,0.83c-0.01,0.03-0.02,0.06-0.02,0.09l-6.31,28.7l25.49,19.86l36.67-17.86
				C172.38,57.59,171.8,56.83,171.08,56.41z"/>
			<path class="st11" d="M169.11,62.34l3.97-1.69c0.07-1.54-0.56-3.12-1.61-3.97l-6.28,2.64L169.11,62.34z"/>
			<path class="st2" d="M158.43,106.01l-52.11-30.08c-1.47-0.85-2.32-3.11-1.9-5.04l9.21-41.87c0.42-1.93,1.96-2.81,3.44-1.96
				l52.11,30.08c1.47,0.85,2.32,3.11,1.9,5.04l-9.21,41.87C161.44,105.98,159.9,106.86,158.43,106.01z"/>
			<path class="st8" d="M169.67,56.95l-52.11-30.08c-0.71-0.41-1.44-0.41-2.05-0.09c0.49-0.11,1.02-0.03,1.55,0.27l52.11,30.08
				c1.47,0.85,2.32,3.11,1.9,5.04l-9.21,41.87c-0.22,1-0.74,1.71-1.39,2.05c0.88-0.19,1.61-0.99,1.89-2.23l9.21-41.87
				C172,60.06,171.15,57.8,169.67,56.95z"/>
			<path class="st8" d="M157.3,103.13l-49-28.28c-1.35-0.78-2.13-2.84-1.74-4.61l8.49-38.59c0.39-1.77,1.8-2.57,3.15-1.79l49,28.28
				c1.35,0.78,2.13,2.84,1.74,4.61l-8.49,38.59C160.06,103.11,158.65,103.91,157.3,103.13z"/>
			<path class="st5" d="M157.3,103.13l-49-28.28c-1.35-0.78-2.13-2.84-1.74-4.61l8.49-38.59c0.39-1.77,1.8-2.57,3.15-1.79l49,28.28
				c1.35,0.78,2.13,2.84,1.74,4.61l-8.49,38.59C160.06,103.11,158.65,103.91,157.3,103.13z"/>
			<path class="st3" d="M157.72,102.96l-49-28.28c-1.35-0.78-2.13-2.84-1.74-4.61l8.49-38.59c0.2-0.9,0.66-1.54,1.23-1.86
				c-0.78,0.2-1.42,0.93-1.66,2.03l-8.49,38.59c-0.39,1.77,0.39,3.84,1.74,4.61l49,28.28c0.67,0.38,1.35,0.38,1.91,0.07
				C158.74,103.32,158.23,103.25,157.72,102.96z"/>
			<path class="st5" d="M159.15,107.32l-7.12-0.94l-45.98-26.55c-1.47-0.85-4.05-0.74-5.75,0.24l-32.58,18.8l-4.31-0.57v2.44l0,0
				c-0.03,0.56,0.29,1.11,0.99,1.51l52.11,30.08c1.47,0.85,4.05,0.74,5.75-0.24l35.48-20.48c0.96-0.55,1.43-1.27,1.41-1.93l0,0
				V107.32z"/>
			<path class="st1" d="M124.6,90.54l-3.27-1.89H85.42l-17.7,10.22l-4.31-0.57v2.44l0,0c-0.03,0.56,0.29,1.11,0.99,1.51l52.11,30.08
				c0.78,0.45,1.87,0.63,2.97,0.56L124.6,90.54z"/>
			<path class="st3" d="M65.32,98.56l-1.91-0.25v2.44l0,0c-0.03,0.56,0.29,1.11,0.99,1.51l0.92,0.53V98.56z"/>
			<path class="st11" d="M117.03,132.58c1.4,0.53,3.39,0.41,4.89-0.3v-5.45h-4.89V132.58z"/>
			<path class="st2" d="M116.51,129.9L64.4,99.82c-1.47-0.85-1.29-2.34,0.41-3.32l35.48-20.48c1.7-0.98,4.28-1.09,5.75-0.24
				l52.11,30.08c1.47,0.85,1.29,2.34-0.41,3.32l-35.48,20.48C120.56,130.64,117.98,130.75,116.51,129.9z"/>
			<path class="st8" d="M157.74,108.29l-35.48,20.48c-1.7,0.98-4.28,1.09-5.75,0.24L64.4,98.92c-0.48-0.28-0.78-0.63-0.92-1
				c-0.23,0.7,0.06,1.4,0.92,1.9l52.11,30.08c1.47,0.85,4.05,0.74,5.75-0.24l35.48-20.48c1.14-0.66,1.6-1.55,1.33-2.32
				C158.9,107.37,158.46,107.88,157.74,108.29z"/>
			<g>
				<path class="st3" d="M86.56,89.86l-2.36-1.36c-0.19-0.11-0.17-0.3,0.05-0.43l2.78-1.61c0.22-0.13,0.55-0.14,0.74-0.03l2.36,1.36
					c0.19,0.11,0.17,0.3-0.05,0.43l-2.78,1.61C87.08,89.95,86.75,89.97,86.56,89.86z"/>
				<path class="st3" d="M90.2,91.96l-2.36-1.36c-0.19-0.11-0.17-0.3,0.05-0.43l2.78-1.61c0.22-0.13,0.55-0.14,0.74-0.03l2.36,1.36
					c0.19,0.11,0.17,0.3-0.05,0.43l-2.78,1.61C90.72,92.05,90.39,92.07,90.2,91.96z"/>
				<path class="st3" d="M93.85,94.06l-2.36-1.36c-0.19-0.11-0.17-0.3,0.05-0.43l2.78-1.61c0.22-0.13,0.55-0.14,0.74-0.03L97.42,92
					c0.19,0.11,0.17,0.3-0.05,0.43l-2.78,1.61C94.37,94.16,94.03,94.17,93.85,94.06z"/>
				<path class="st3" d="M98.88,92.32l-2.36-1.36c-0.19-0.11-0.17-0.3,0.05-0.43l2.34-1.35c0.22-0.13,0.55-0.14,0.74-0.03l2.36,1.36
					c0.19,0.11,0.17,0.3-0.05,0.43l-2.34,1.35C99.4,92.42,99.07,92.43,98.88,92.32z"/>
				<path class="st3" d="M102.52,94.43l-2.36-1.36c-0.19-0.11-0.17-0.3,0.05-0.43l2.34-1.35c0.22-0.13,0.55-0.14,0.74-0.03
					l2.36,1.36c0.19,0.11,0.17,0.3-0.05,0.43l-2.34,1.35C103.04,94.52,102.71,94.54,102.52,94.43z"/>
				<path class="st3" d="M106.16,96.53l-2.36-1.36c-0.19-0.11-0.17-0.3,0.05-0.43l2.34-1.35c0.22-0.13,0.55-0.14,0.74-0.03
					l2.36,1.36c0.19,0.11,0.17,0.3-0.05,0.43l-2.34,1.35C106.68,96.62,106.35,96.64,106.16,96.53z"/>
				<path class="st3" d="M109.8,98.63l-2.36-1.36c-0.19-0.11-0.17-0.3,0.05-0.43l2.34-1.35c0.22-0.13,0.55-0.14,0.74-0.03l2.36,1.36
					c0.19,0.11,0.17,0.3-0.05,0.43l-2.34,1.35C110.32,98.73,109.99,98.74,109.8,98.63z"/>
				<path class="st3" d="M113.44,100.73l-2.36-1.36c-0.19-0.11-0.17-0.3,0.05-0.43l2.34-1.35c0.22-0.13,0.55-0.14,0.74-0.03
					l2.36,1.36c0.19,0.11,0.17,0.3-0.05,0.43l-2.34,1.35C113.96,100.83,113.63,100.84,113.44,100.73z"/>
				<path class="st3" d="M117.09,102.84l-2.36-1.36c-0.19-0.11-0.17-0.3,0.05-0.43l2.34-1.35c0.22-0.13,0.55-0.14,0.74-0.03
					l2.36,1.36c0.19,0.11,0.17,0.3-0.05,0.43l-2.34,1.35C117.61,102.93,117.27,102.94,117.09,102.84z"/>
				<path class="st3" d="M120.73,104.94l-2.36-1.36c-0.19-0.11-0.17-0.3,0.05-0.43l2.34-1.35c0.22-0.13,0.55-0.14,0.74-0.03
					l2.36,1.36c0.19,0.11,0.17,0.3-0.05,0.43l-2.34,1.35C121.25,105.03,120.92,105.05,120.73,104.94z"/>
				<path class="st3" d="M124.37,107.04l-2.36-1.36c-0.19-0.11-0.17-0.3,0.05-0.43l2.34-1.35c0.22-0.13,0.55-0.14,0.74-0.03
					l2.36,1.36c0.19,0.11,0.17,0.3-0.05,0.43l-2.34,1.35C124.89,107.13,124.56,107.15,124.37,107.04z"/>
				<path class="st3" d="M128.01,109.14l-2.36-1.36c-0.19-0.11-0.17-0.3,0.05-0.43l2.34-1.35c0.22-0.13,0.55-0.14,0.74-0.03
					l2.36,1.36c0.19,0.11,0.17,0.3-0.05,0.43l-2.34,1.35C128.53,109.24,128.2,109.25,128.01,109.14z"/>
				<path class="st3" d="M131.65,111.24l-2.36-1.36c-0.19-0.11-0.17-0.3,0.05-0.43l2.34-1.35c0.22-0.13,0.55-0.14,0.74-0.03
					l2.36,1.36c0.19,0.11,0.17,0.3-0.05,0.43l-2.34,1.35C132.17,111.34,131.84,111.35,131.65,111.24z"/>
				<path class="st3" d="M104.25,91.33l-2.36-1.36c-0.19-0.11-0.17-0.3,0.05-0.43l2.34-1.35c0.22-0.13,0.55-0.14,0.74-0.03
					l2.36,1.36c0.19,0.11,0.17,0.3-0.05,0.43l-2.34,1.35C104.77,91.43,104.43,91.44,104.25,91.33z"/>
				<path class="st3" d="M100.55,89.2l-2.36-1.36c-0.19-0.11-0.17-0.3,0.05-0.43l2.34-1.35c0.22-0.13,0.55-0.14,0.74-0.03l2.36,1.36
					c0.19,0.11,0.17,0.3-0.05,0.43l-2.34,1.35C101.07,89.29,100.74,89.31,100.55,89.2z"/>
				<path class="st3" d="M96.85,87.06l-5.08-2.93c-0.19-0.11-0.17-0.3,0.05-0.43l2.34-1.35c0.22-0.13,0.55-0.14,0.74-0.03l5.08,2.93
					c0.19,0.11,0.17,0.3-0.05,0.43l-2.34,1.35C97.37,87.15,97.04,87.17,96.85,87.06z"/>
				<path class="st3" d="M99.44,84.46l-4.12-2.38c-0.19-0.11-0.17-0.3,0.05-0.43l2.34-1.35c0.22-0.13,0.55-0.14,0.74-0.03l4.12,2.38
					c0.19,0.11,0.17,0.3-0.05,0.43l-2.34,1.35C99.96,84.56,99.63,84.57,99.44,84.46z"/>
				<path class="st3" d="M107.89,93.43l-2.36-1.36c-0.19-0.11-0.17-0.3,0.05-0.43l2.34-1.35c0.22-0.13,0.55-0.14,0.74-0.03
					l2.36,1.36c0.19,0.11,0.17,0.3-0.05,0.43l-2.34,1.35C108.41,93.53,108.08,93.54,107.89,93.43z"/>
				<path class="st3" d="M111.53,95.53l-2.36-1.36c-0.19-0.11-0.17-0.3,0.05-0.43l2.34-1.35c0.22-0.13,0.55-0.14,0.74-0.03
					l2.36,1.36c0.19,0.11,0.17,0.3-0.05,0.43l-2.34,1.35C112.05,95.63,111.72,95.64,111.53,95.53z"/>
				<path class="st3" d="M115.17,97.64l-2.36-1.36c-0.19-0.11-0.17-0.3,0.05-0.43l2.34-1.35c0.22-0.13,0.55-0.14,0.74-0.03
					l2.36,1.36c0.19,0.11,0.17,0.3-0.05,0.43l-2.34,1.35C115.69,97.73,115.36,97.75,115.17,97.64z"/>
				<path class="st3" d="M118.81,99.74l-2.36-1.36c-0.19-0.11-0.17-0.3,0.05-0.43l2.34-1.35c0.22-0.13,0.55-0.14,0.74-0.03
					l2.36,1.36c0.19,0.11,0.17,0.3-0.05,0.43l-2.34,1.35C119.33,99.83,119,99.85,118.81,99.74z"/>
				<path class="st3" d="M122.45,101.84l-2.36-1.36c-0.19-0.11-0.17-0.3,0.05-0.43l2.34-1.35c0.22-0.13,0.55-0.14,0.74-0.03
					l2.36,1.36c0.19,0.11,0.17,0.3-0.05,0.43l-2.34,1.35C122.97,101.94,122.64,101.95,122.45,101.84z"/>
				<path class="st3" d="M126.09,103.94l-2.36-1.36c-0.19-0.11-0.17-0.3,0.05-0.43l2.34-1.35c0.22-0.13,0.55-0.14,0.74-0.03
					l2.36,1.36c0.19,0.11,0.17,0.3-0.05,0.43l-2.34,1.35C126.61,104.04,126.28,104.05,126.09,103.94z"/>
				<path class="st3" d="M129.73,106.04l-2.36-1.36c-0.19-0.11-0.17-0.3,0.05-0.43l2.34-1.35c0.22-0.13,0.55-0.14,0.74-0.03
					l2.36,1.36c0.19,0.11,0.17,0.3-0.05,0.43l-2.34,1.35C130.25,106.14,129.92,106.15,129.73,106.04z"/>
				<path class="st3" d="M133.37,108.15l-2.36-1.36c-0.19-0.11-0.17-0.3,0.05-0.43l2.34-1.35c0.22-0.13,0.55-0.14,0.74-0.03
					l2.36,1.36c0.19,0.11,0.17,0.3-0.05,0.43l-2.34,1.35C133.89,108.24,133.56,108.26,133.37,108.15z"/>
				<path class="st3" d="M137.01,110.25l-2.36-1.36c-0.19-0.11-0.17-0.3,0.05-0.43l2.34-1.35c0.22-0.13,0.55-0.14,0.74-0.03
					l2.36,1.36c0.19,0.11,0.17,0.3-0.05,0.43l-2.34,1.35C137.53,110.34,137.2,110.36,137.01,110.25z"/>
				<path class="st3" d="M143.49,113.99l-5.14-2.97c-0.19-0.11-0.17-0.3,0.05-0.43l2.34-1.35c0.22-0.13,0.55-0.14,0.74-0.03
					l5.14,2.97c0.19,0.11,0.17,0.3-0.05,0.43l-2.34,1.35C144.01,114.08,143.67,114.09,143.49,113.99z"/>
				<path class="st3" d="M150.57,109.89l-4.34-2.51c-0.19-0.11-0.17-0.3,0.05-0.43l2.34-1.35c0.22-0.13,0.55-0.14,0.74-0.03
					l4.34,2.51c0.19,0.11,0.17,0.3-0.05,0.43l-2.34,1.35C151.09,109.99,150.76,110,150.57,109.89z"/>
				<path class="st3" d="M114.26,93.02l-2.36-1.36c-0.19-0.11-0.17-0.3,0.05-0.43l2.34-1.35c0.22-0.13,0.55-0.14,0.74-0.03
					l2.36,1.36c0.19,0.11,0.17,0.3-0.05,0.43L115,92.99C114.78,93.12,114.45,93.13,114.26,93.02z"/>
				<path class="st3" d="M110.53,90.87l-2.36-1.36c-0.19-0.11-0.17-0.3,0.05-0.43l2.34-1.35c0.22-0.13,0.55-0.14,0.74-0.03
					l2.36,1.36c0.19,0.11,0.17,0.3-0.05,0.43l-2.34,1.35C111.05,90.96,110.72,90.98,110.53,90.87z"/>
				<path class="st3" d="M106.8,88.71l-2.36-1.36c-0.19-0.11-0.17-0.3,0.05-0.43l2.34-1.35c0.22-0.13,0.55-0.14,0.74-0.03l2.36,1.36
					c0.19,0.11,0.17,0.3-0.05,0.43l-2.34,1.35C107.32,88.81,106.99,88.82,106.8,88.71z"/>
				<path class="st3" d="M103.07,86.56l-2.36-1.36c-0.19-0.11-0.17-0.3,0.05-0.43l2.34-1.35c0.22-0.13,0.55-0.14,0.74-0.03
					l2.36,1.36c0.19,0.11,0.17,0.3-0.05,0.43l-2.34,1.35C103.59,86.65,103.26,86.67,103.07,86.56z"/>
				<path class="st3" d="M117.9,95.12l-2.36-1.36c-0.19-0.11-0.17-0.3,0.05-0.43l2.34-1.35c0.22-0.13,0.55-0.14,0.74-0.03l2.36,1.36
					c0.19,0.11,0.17,0.3-0.05,0.43l-2.34,1.35C118.42,95.22,118.09,95.23,117.9,95.12z"/>
				<path class="st3" d="M121.54,97.22l-2.36-1.36c-0.19-0.11-0.17-0.3,0.05-0.43l2.34-1.35c0.22-0.13,0.55-0.14,0.74-0.03
					l2.36,1.36c0.19,0.11,0.17,0.3-0.05,0.43l-2.34,1.35C122.06,97.32,121.73,97.33,121.54,97.22z"/>
				<path class="st3" d="M125.18,99.33l-2.36-1.36c-0.19-0.11-0.17-0.3,0.05-0.43l2.34-1.35c0.22-0.13,0.55-0.14,0.74-0.03
					l2.36,1.36c0.19,0.11,0.17,0.3-0.05,0.43l-2.34,1.35C125.7,99.42,125.37,99.44,125.18,99.33z"/>
				<path class="st3" d="M128.83,101.43l-2.36-1.36c-0.19-0.11-0.17-0.3,0.05-0.43l2.34-1.35c0.22-0.13,0.55-0.14,0.74-0.03
					l2.36,1.36c0.19,0.11,0.17,0.3-0.05,0.43l-2.34,1.35C129.35,101.52,129.01,101.54,128.83,101.43z"/>
				<path class="st3" d="M132.47,103.53l-2.36-1.36c-0.19-0.11-0.17-0.3,0.05-0.43l2.34-1.35c0.22-0.13,0.55-0.14,0.74-0.03
					l2.36,1.36c0.19,0.11,0.17,0.3-0.05,0.43l-2.34,1.35C132.99,103.63,132.66,103.64,132.47,103.53z"/>
				<path class="st3" d="M136.11,105.63l-2.36-1.36c-0.19-0.11-0.17-0.3,0.05-0.43l2.34-1.35c0.22-0.13,0.55-0.14,0.74-0.03
					l2.36,1.36c0.19,0.11,0.17,0.3-0.05,0.43l-2.34,1.35C136.63,105.73,136.3,105.74,136.11,105.63z"/>
				<path class="st3" d="M139.75,107.73l-2.36-1.36c-0.19-0.11-0.17-0.3,0.05-0.43l2.34-1.35c0.22-0.13,0.55-0.14,0.74-0.03
					l2.36,1.36c0.19,0.11,0.17,0.3-0.05,0.43l-2.34,1.35C140.27,107.83,139.94,107.84,139.75,107.73z"/>
				<path class="st3" d="M143.39,109.84l-2.36-1.36c-0.19-0.11-0.17-0.3,0.05-0.43l2.34-1.35c0.22-0.13,0.55-0.14,0.74-0.03
					l2.36,1.36c0.19,0.11,0.17,0.3-0.05,0.43l-2.34,1.35C143.91,109.93,143.58,109.95,143.39,109.84z"/>
				<path class="st3" d="M147.03,111.94l-2.36-1.36c-0.19-0.11-0.17-0.3,0.05-0.43l2.34-1.35c0.22-0.13,0.55-0.14,0.74-0.03
					l2.36,1.36c0.19,0.11,0.17,0.3-0.05,0.43l-2.34,1.35C147.55,112.03,147.22,112.05,147.03,111.94z"/>
				<path class="st3" d="M112.35,87.82l-2.36-1.36c-0.19-0.11-0.17-0.3,0.05-0.43l2.34-1.35c0.22-0.13,0.55-0.14,0.74-0.03
					l2.36,1.36c0.19,0.11,0.17,0.3-0.05,0.43l-2.34,1.35C112.86,87.92,112.53,87.93,112.35,87.82z"/>
				<path class="st3" d="M108.72,85.73l-2.36-1.36c-0.19-0.11-0.17-0.3,0.05-0.43l2.34-1.35c0.22-0.13,0.55-0.14,0.74-0.03
					l2.36,1.36c0.19,0.11,0.17,0.3-0.05,0.43l-2.34,1.35C109.24,85.83,108.91,85.84,108.72,85.73z"/>
				<path class="st3" d="M105.1,83.64l-2.36-1.36c-0.19-0.11-0.17-0.3,0.05-0.43l2.34-1.35c0.22-0.13,0.55-0.14,0.74-0.03l2.36,1.36
					c0.19,0.11,0.17,0.3-0.05,0.43l-2.34,1.35C105.62,83.73,105.29,83.75,105.1,83.64z"/>
				<path class="st3" d="M101.48,81.55l-2.36-1.36c-0.19-0.11-0.17-0.3,0.05-0.43l2.34-1.35c0.22-0.13,0.55-0.14,0.74-0.03
					l2.36,1.36c0.19,0.11,0.17,0.3-0.05,0.43l-2.34,1.35C102,81.64,101.67,81.66,101.48,81.55z"/>
				<path class="st3" d="M105.2,79.4l-2.36-1.36c-0.19-0.11-0.17-0.3,0.05-0.43l0.77-0.45c0.22-0.13,0.55-0.14,0.74-0.03l2.36,1.36
					c0.19,0.11,0.17,0.3-0.05,0.43l-0.77,0.45C105.72,79.49,105.39,79.51,105.2,79.4z"/>
				<path class="st3" d="M109.93,82.13l-2.36-1.36c-0.19-0.11-0.17-0.3,0.05-0.43l0.77-0.45c0.22-0.13,0.55-0.14,0.74-0.03
					l2.36,1.36c0.19,0.11,0.17,0.3-0.05,0.43l-0.77,0.45C110.45,82.22,110.12,82.23,109.93,82.13z"/>
				<path class="st3" d="M113.54,84.21l-2.36-1.36c-0.19-0.11-0.17-0.3,0.05-0.43l0.77-0.45c0.22-0.13,0.55-0.14,0.74-0.03
					l2.36,1.36c0.19,0.11,0.17,0.3-0.05,0.43l-0.77,0.45C114.06,84.3,113.73,84.32,113.54,84.21z"/>
				<path class="st3" d="M117.15,86.29l-2.36-1.36c-0.19-0.11-0.17-0.3,0.05-0.43l0.77-0.45c0.22-0.13,0.55-0.14,0.74-0.03
					l2.36,1.36c0.19,0.11,0.17,0.3-0.05,0.43l-0.77,0.45C117.67,86.39,117.33,86.4,117.15,86.29z"/>
				<path class="st3" d="M120.75,88.37l-2.36-1.36c-0.19-0.11-0.17-0.3,0.05-0.43l0.77-0.45c0.22-0.13,0.55-0.14,0.74-0.03
					l2.36,1.36c0.19,0.11,0.17,0.3-0.05,0.43l-0.77,0.45C121.27,88.47,120.94,88.48,120.75,88.37z"/>
				<path class="st3" d="M140.89,100l-2.36-1.36c-0.19-0.11-0.17-0.3,0.05-0.43l0.77-0.45c0.22-0.13,0.55-0.14,0.74-0.03l2.36,1.36
					c0.19,0.11,0.17,0.3-0.05,0.43l-0.77,0.45C141.41,100.1,141.08,100.11,140.89,100z"/>
				<path class="st3" d="M144.5,102.08l-2.36-1.36c-0.19-0.11-0.17-0.3,0.05-0.43l0.77-0.45c0.22-0.13,0.55-0.14,0.74-0.03
					l2.36,1.36c0.19,0.11,0.17,0.3-0.05,0.43l-0.77,0.45C145.02,102.18,144.69,102.19,144.5,102.08z"/>
				<path class="st3" d="M148.11,104.17l-2.36-1.36c-0.19-0.11-0.17-0.3,0.05-0.43l0.77-0.45c0.22-0.13,0.55-0.14,0.74-0.03
					l2.36,1.36c0.19,0.11,0.17,0.3-0.05,0.43l-0.77,0.45C148.63,104.26,148.3,104.28,148.11,104.17z"/>
				<path class="st3" d="M151.72,106.25l-2.36-1.36c-0.19-0.11-0.17-0.3,0.05-0.43l0.77-0.45c0.22-0.13,0.55-0.14,0.74-0.03
					l2.36,1.36c0.19,0.11,0.17,0.3-0.05,0.43l-0.77,0.45C152.24,106.35,151.91,106.36,151.72,106.25z"/>
				<path class="st3" d="M115.99,89.92l-2.36-1.36c-0.19-0.11-0.17-0.3,0.05-0.43l2.34-1.35c0.22-0.13,0.55-0.14,0.74-0.03
					l2.36,1.36c0.19,0.11,0.17,0.3-0.05,0.43l-2.34,1.35C116.51,90.02,116.18,90.03,115.99,89.92z"/>
				<path class="st3" d="M119.63,92.03l-2.36-1.36c-0.19-0.11-0.17-0.3,0.05-0.43l2.34-1.35c0.22-0.13,0.55-0.14,0.74-0.03
					l2.36,1.36c0.19,0.11,0.17,0.3-0.05,0.43l-2.34,1.35C120.15,92.12,119.82,92.13,119.63,92.03z"/>
				<path class="st3" d="M123.27,94.13l-2.36-1.36c-0.19-0.11-0.17-0.3,0.05-0.43l2.34-1.35c0.22-0.13,0.55-0.14,0.74-0.03
					l2.36,1.36c0.19,0.11,0.17,0.3-0.05,0.43l-2.34,1.35C123.79,94.22,123.46,94.24,123.27,94.13z"/>
				<path class="st3" d="M126.91,96.23l-2.36-1.36c-0.19-0.11-0.17-0.3,0.05-0.43l2.34-1.35c0.22-0.13,0.55-0.14,0.74-0.03
					l2.36,1.36c0.19,0.11,0.17,0.3-0.05,0.43l-2.34,1.35C127.43,96.32,127.1,96.34,126.91,96.23z"/>
				<path class="st3" d="M130.55,98.33l-2.36-1.36c-0.19-0.11-0.17-0.3,0.05-0.43l2.34-1.35c0.22-0.13,0.55-0.14,0.74-0.03
					l2.36,1.36c0.19,0.11,0.17,0.3-0.05,0.43l-2.34,1.35C131.07,98.43,130.74,98.44,130.55,98.33z"/>
				<path class="st3" d="M134.19,100.43l-2.36-1.36c-0.19-0.11-0.17-0.3,0.05-0.43l2.34-1.35c0.22-0.13,0.55-0.14,0.74-0.03
					l2.36,1.36c0.19,0.11,0.17,0.3-0.05,0.43l-2.34,1.35C134.71,100.53,134.38,100.54,134.19,100.43z"/>
				<path class="st3" d="M137.83,102.54l-2.36-1.36c-0.19-0.11-0.17-0.3,0.05-0.43l2.34-1.35c0.22-0.13,0.55-0.14,0.74-0.03
					l2.36,1.36c0.19,0.11,0.17,0.3-0.05,0.43l-2.34,1.35C138.35,102.63,138.02,102.64,137.83,102.54z"/>
				<path class="st3" d="M141.47,104.64l-2.36-1.36c-0.19-0.11-0.17-0.3,0.05-0.43l2.34-1.35c0.22-0.13,0.55-0.14,0.74-0.03
					l2.36,1.36c0.19,0.11,0.17,0.3-0.05,0.43l-2.34,1.35C141.99,104.73,141.66,104.75,141.47,104.64z"/>
				<path class="st3" d="M145.11,106.74l-2.36-1.36c-0.19-0.11-0.17-0.3,0.05-0.43l2.34-1.35c0.22-0.13,0.55-0.14,0.74-0.03
					l2.36,1.36c0.19,0.11,0.17,0.3-0.05,0.43l-2.34,1.35C145.63,106.84,145.3,106.85,145.11,106.74z"/>
				<path class="st3" d="M95.17,90.18l-6.94-4.01c-0.19-0.11-0.17-0.3,0.05-0.43l2.34-1.35c0.22-0.13,0.55-0.14,0.74-0.03l6.94,4.01
					c0.19,0.11,0.17,0.3-0.05,0.43l-2.34,1.35C95.69,90.28,95.36,90.29,95.17,90.18z"/>
				<path class="st3" d="M139.9,116.01l-6.94-4.01c-0.19-0.11-0.17-0.3,0.05-0.43l2.34-1.35c0.22-0.13,0.55-0.14,0.74-0.03
					l6.94,4.01c0.19,0.11,0.17,0.3-0.05,0.43l-2.34,1.35C140.42,116.1,140.09,116.12,139.9,116.01z"/>
				<path class="st3" d="M125.34,112.24l-2.36-1.36c-0.19-0.11-0.17-0.3,0.05-0.43l2.78-1.61c0.22-0.13,0.55-0.14,0.74-0.03
					l2.36,1.36c0.19,0.11,0.17,0.3-0.05,0.43l-2.78,1.61C125.86,112.34,125.53,112.35,125.34,112.24z"/>
				<path class="st3" d="M98.9,96.98l-3.77-2.18c-0.19-0.11-0.17-0.3,0.05-0.43l2.78-1.61c0.22-0.13,0.55-0.14,0.74-0.03l3.77,2.18
					c0.19,0.11,0.17,0.3-0.05,0.43l-2.78,1.61C99.42,97.07,99.09,97.09,98.9,96.98z"/>
				<path class="st3" d="M121.83,110.22l-3.77-2.18c-0.19-0.11-0.17-0.3,0.05-0.43l2.78-1.61c0.22-0.13,0.55-0.14,0.74-0.03
					l3.77,2.18c0.19,0.11,0.17,0.3-0.05,0.43l-2.78,1.61C122.35,110.31,122.02,110.33,121.83,110.22z"/>
				<path class="st3" d="M104.15,100.01l-3.77-2.18c-0.19-0.11-0.17-0.3,0.05-0.43l2.78-1.61c0.22-0.13,0.55-0.14,0.74-0.03
					l3.77,2.18c0.19,0.11,0.17,0.3-0.05,0.43l-2.78,1.61C104.67,100.11,104.34,100.12,104.15,100.01z"/>
				<path class="st3" d="M103.98,95.79l16.39,9.46c0.2,0.12,0.2,0.31,0,0.43l-2.84,1.64c-0.2,0.12-0.53,0.12-0.74,0l-16.39-9.46
					L103.98,95.79z"/>
				<path class="st3" d="M135.51,116.05l2.63,1.52c0.16,0.09,0.14,0.25-0.04,0.35l-1.14,0.66c-0.18,0.1-0.45,0.11-0.61,0.03
					l-2.63-1.52c-0.16-0.09-0.14-0.25,0.04-0.35l1.14-0.66C135.09,115.98,135.36,115.97,135.51,116.05z"/>
				<path class="st3" d="M131.84,113.94l2.63,1.52c0.16,0.09,0.14,0.25-0.04,0.35l-1.14,0.66c-0.18,0.1-0.45,0.11-0.61,0.03
					l-2.63-1.52c-0.16-0.09-0.14-0.25,0.04-0.35l1.14-0.66C131.42,113.86,131.69,113.85,131.84,113.94z"/>
				<path class="st3" d="M128.2,111.83l2.63,1.52c0.16,0.09,0.14,0.25-0.04,0.35l-1.14,0.66c-0.18,0.1-0.45,0.11-0.61,0.03
					l-2.63-1.52c-0.16-0.09-0.14-0.25,0.04-0.35l1.14-0.66C127.78,111.76,128.05,111.74,128.2,111.83z"/>
				<path class="st3" d="M133.85,112.77l2.63,1.52c0.16,0.09,0.14,0.25-0.04,0.35l-1.14,0.66c-0.18,0.1-0.45,0.11-0.61,0.03
					l-2.63-1.52c-0.16-0.09-0.14-0.25,0.04-0.35l1.14-0.66C133.43,112.7,133.7,112.68,133.85,112.77z"/>
			</g>
			<g>
				<polygon class="st2" points="126.54,49.31 120.61,45.89 120.87,44.62 126.79,48.04 				"/>
				<polygon class="st8" points="125.89,52.28 119.97,48.86 120.22,47.58 126.15,51 				"/>
				<polygon class="st2" points="154.96,93.37 149.04,89.95 149.29,88.68 155.21,92.1 				"/>
				<polygon class="st2" points="124.61,58.2 118.69,54.78 118.94,53.51 124.86,56.93 				"/>
			</g>
		</g>
		<g>
			<path class="st7" d="M136.64,64.49l-5.97-3.45c-0.53-0.31-0.84-1.06-0.7-1.69l1.3-5.83c0.14-0.63,0.68-0.89,1.21-0.58l5.97,3.45
				c0.53,0.31,0.84,1.06,0.7,1.69l-1.3,5.83C137.7,64.54,137.16,64.8,136.64,64.49z"/>
			<path class="st12" d="M147.05,70.5l-5.97-3.45c-0.53-0.31-0.84-1.06-0.7-1.69l1.3-5.83c0.14-0.63,0.68-0.89,1.21-0.58l5.97,3.45
				c0.53,0.31,0.84,1.06,0.7,1.69l-1.3,5.83C148.12,70.55,147.58,70.81,147.05,70.5z"/>
			<path class="st8" d="M134.33,74.85l-5.97-3.45c-0.53-0.31-0.84-1.06-0.7-1.69l1.3-5.83c0.14-0.63,0.68-0.89,1.21-0.58l5.97,3.45
				c0.53,0.31,0.84,1.06,0.7,1.69l-1.3,5.83C135.4,74.9,134.86,75.16,134.33,74.85z"/>
			<path class="st1" d="M144.74,80.87l-5.97-3.45c-0.53-0.31-0.84-1.06-0.7-1.69l1.3-5.83c0.14-0.63,0.68-0.89,1.21-0.58l5.97,3.45
				c0.53,0.31,0.84,1.06,0.7,1.69l-1.3,5.83C145.81,80.91,145.27,81.17,144.74,80.87z"/>
		</g>
	</g>
	<g>
		<g class="st13">
			<path class="st14" d="M116.67,72.33L94.3,59.41c-1.26-0.73-2.28-2.67-2.28-4.35V28.11c0-1.68,1.02-2.45,2.28-1.72l22.37,12.92
				c1.26,0.73,2.28,2.67,2.28,4.35v26.95C118.95,72.29,117.93,73.06,116.67,72.33z"/>
		</g>
		<polygon class="st8" points="97.7,48.06 97.7,49.71 111.53,57.78 111.53,56.13 		"/>
		<polygon class="st8" points="97.7,51.57 97.7,53.21 111.53,61.28 111.53,59.64 		"/>
		<polygon class="st8" points="97.7,55.07 97.7,56.71 111.53,64.79 111.53,63.14 		"/>
		<g>
			<path class="st7" d="M102.74,36.96c2.61,0.53,5.1,3.21,5.76,6.09l2.18,0.08c-0.93-4.12-4.51-7.86-8.2-8.46
				c-1.37-0.22-2.51,0.06-3.37,0.67l1.33,1.86C101.07,36.89,101.85,36.78,102.74,36.96z"/>
			<path class="st5" d="M108.51,43.05c0.09,0.38,0.14,0.75,0.16,1.12c0.14,2.99-1.71,4.17-4.36,3.14c-1.57-0.61-3-1.95-3.92-3.49
				l-1.48,0.64c1.22,2.02,3.1,3.81,5.19,4.69c3.63,1.52,6.89-0.14,6.82-4.3c-0.01-0.56-0.08-1.14-0.21-1.72L108.51,43.05z"/>
			<path class="st8" d="M99.27,41.1c-0.3-1.87-0.04-3.24,1.19-3.88l-1.33-1.86c-1.45,1.03-2.09,3.02-1.66,5.42
				c0.23,1.28,0.74,2.55,1.43,3.69l1.48-0.64C99.86,42.96,99.42,42.05,99.27,41.1z"/>
		</g>
	</g>
	<g>
		<g class="st15">
			<path class="st16" d="M92.26,66.2l-14.22-8.76c-1.2-0.69-2.16-2.54-2.16-4.14V27.68c0-1.59,0.97-2.33,2.16-1.64l14.22,8.76
				c1.2,0.69,2.16,2.54,2.16,4.14v25.62C94.42,66.16,93.45,66.89,92.26,66.2z"/>
		</g>
		<polygon class="st7" points="77.45,30.91 77.45,32.56 86.65,37.91 86.65,36.27 		"/>
		<polygon class="st7" points="77.45,47.5 77.45,49.14 86.22,54.31 86.22,52.66 		"/>
		<polygon class="st8" points="83.89,38.98 83.89,40.63 93.14,45.99 93.14,44.34 		"/>
		<polygon class="st6" points="83.89,42.8 83.89,44.45 93.14,49.91 93.14,48.26 		"/>
		<polygon class="st8" points="83.59,46.68 83.59,48.32 93.14,53.92 93.14,52.27 		"/>
	</g>
	<g>
		<path class="st2" d="M16.36,42.22c-0.91-0.52-2.39-0.52-3.3,0c-0.38,0.22-0.6,0.49-0.66,0.78l-8,0.8
			c-0.11-0.12-0.25-0.24-0.42-0.34c-0.22-0.13-0.47-0.22-0.74-0.29l1.5-3.9c0.62,0.01,1.25-0.12,1.73-0.39
			c0.91-0.53,0.91-1.38,0-1.9c-0.91-0.53-2.39-0.53-3.3,0c-0.91,0.53-0.91,1.38,0,1.9c0.22,0.13,0.47,0.22,0.74,0.29l-1.5,3.9
			c-0.62-0.01-1.25,0.12-1.73,0.39c-0.91,0.53-0.91,1.38,0,1.9c0.91,0.53,2.39,0.53,3.3,0c0.38-0.22,0.6-0.49,0.66-0.78l8-0.8
			c0.11,0.12,0.25,0.24,0.42,0.34c0.91,0.53,2.39,0.53,3.3,0C17.27,43.6,17.27,42.75,16.36,42.22z"/>
		<g>
			<path class="st2" d="M153.25,136.74l1.8-0.25v-0.99l-1.8-0.25c-0.12-0.35-0.33-0.68-0.62-0.98l0.92-0.86l-1.21-0.7l-1.35,0.48
				c-0.58-0.24-1.23-0.41-1.92-0.5l-0.35-0.84h-1.71l-0.34,0.84c-0.69,0.09-1.34,0.26-1.92,0.5l-1.35-0.48l-1.21,0.7l0.92,0.86
				c-0.29,0.3-0.5,0.63-0.62,0.98l-1.8,0.25v0.99l1.8,0.25c0.12,0.35,0.33,0.68,0.62,0.98l-0.92,0.86l1.21,0.7l1.35-0.48
				c0.58,0.24,1.23,0.41,1.92,0.5l0.35,0.84h1.71l0.34-0.84c0.69-0.09,1.34-0.26,1.92-0.5l1.35,0.48l1.21-0.7l-0.92-0.86
				C152.92,137.42,153.13,137.09,153.25,136.74z M143.34,136c0-0.59,0.44-1.17,1.23-1.63c0.88-0.51,2.05-0.78,3.31-0.78
				c1.26,0,2.43,0.28,3.31,0.78c0.79,0.46,1.23,1.04,1.23,1.63c0,0.59-0.44,1.17-1.23,1.63c-0.88,0.51-2.05,0.78-3.31,0.78
				c-1.26,0-2.43-0.28-3.31-0.78C143.77,137.17,143.34,136.59,143.34,136z"/>
			<path class="st2" d="M164.92,135.69l1.21-0.48l-0.52-0.77l-1.33,0.11c-0.3-0.31-0.69-0.57-1.15-0.78l0.22-0.68l-1.31-0.33
				l-0.66,0.51c-0.35-0.05-0.72-0.08-1.09-0.08c-0.3,0-0.6,0.02-0.89,0.05l-0.62-0.52l-1.33,0.3l0.17,0.68
				c-0.48,0.21-0.89,0.46-1.22,0.77l-1.3-0.14l-0.57,0.75l1.17,0.51c-0.08,0.3-0.09,0.6-0.02,0.89l-1.21,0.48l0.52,0.77l1.33-0.11
				c0.3,0.31,0.69,0.57,1.15,0.78l-0.22,0.68l1.31,0.33l0.66-0.51c0.35,0.05,0.72,0.08,1.09,0.08c0.3,0,0.6-0.02,0.89-0.05
				l0.62,0.52l1.33-0.3l-0.17-0.68c0.48-0.2,0.89-0.46,1.21-0.77l1.3,0.14l0.57-0.75l-1.17-0.51
				C164.97,136.29,164.98,135.98,164.92,135.69z M156.79,136.69c-0.22-0.32-0.26-0.64-0.13-0.97c0.25-0.62,1.09-1.17,2.21-1.42
				c0.45-0.1,0.93-0.15,1.42-0.15c1.55,0,2.96,0.53,3.5,1.32c0.22,0.32,0.26,0.64,0.14,0.97c-0.25,0.62-1.09,1.17-2.21,1.42
				c-0.45,0.1-0.93,0.15-1.42,0.15C158.73,138.01,157.33,137.48,156.79,136.69z"/>
		</g>
		<g>
			<g>
				<path class="st2" d="M169.65,131.44l-12.5-7.22c-0.54-0.31-0.84-0.77-0.84-1.26c0-0.49,0.31-0.95,0.84-1.26l6.25-3.61
					c0.46-0.27,1.06-0.41,1.69-0.41c0.63,0,1.23,0.15,1.69,0.41l12.5,7.22c0.54,0.31,0.84,0.77,0.84,1.26
					c0,0.49-0.31,0.95-0.84,1.26l-6.25,3.61c-0.46,0.27-1.06,0.41-1.69,0.41C170.72,131.85,170.12,131.71,169.65,131.44z
					 M163.89,118.94l-6.25,3.61c-0.22,0.13-0.36,0.29-0.36,0.42c0,0.13,0.13,0.29,0.36,0.42l12.5,7.22
					c0.31,0.18,0.75,0.28,1.21,0.28c0.46,0,0.9-0.1,1.21-0.28l6.25-3.61c0.22-0.13,0.36-0.29,0.36-0.42c0-0.13-0.13-0.29-0.36-0.42
					l-12.5-7.22c-0.31-0.18-0.75-0.28-1.21-0.28C164.64,118.66,164.2,118.76,163.89,118.94z"/>
			</g>
			<g>
				<path class="st2" d="M177.84,127l-8.52-0.58c-1.97-0.13-3.9-1.82-4.29-3.76l-0.44-2.17c-0.17-0.82-0.08-1.48,0.26-1.89
					c0.47-0.57,1.36-0.58,2.37,0l11.21,6.47c0.92,0.53,1.31,0.99,1.2,1.4c-0.1,0.36-0.55,0.54-1.34,0.54
					C178.14,127.02,178,127.01,177.84,127z M165.22,118.91c-0.24,0.29-0.3,0.82-0.16,1.49l0.44,2.17c0.35,1.74,2.08,3.25,3.85,3.37
					l8.52,0.58c0.15,0.01,0.28,0.01,0.41,0.01c0.68,0,0.86-0.14,0.87-0.18c0.01-0.05-0.11-0.35-0.97-0.85l-11.21-6.47
					c-0.42-0.24-0.82-0.37-1.14-0.37C165.57,118.65,165.36,118.74,165.22,118.91z"/>
			</g>
			<g>
				
					<rect x="170.32" y="126.03" transform="matrix(0.9376 -0.3476 0.3476 0.9376 -34.1315 67.3278)" class="st2" width="0.49" height="5.51"/>
			</g>
			<g>
				
					<rect x="160.88" y="118.92" transform="matrix(0.1182 -0.993 0.993 0.1182 19.6029 268.7646)" class="st2" width="0.49" height="8.85"/>
			</g>
		</g>
		<path class="st2" d="M20.71,59.9c-1.39,0-2.69-0.13-3.85-0.37l-0.31-0.07l-0.17-0.26c-3.5-5.45,6.52-12.87,6.95-13.18l0.39-0.28
			l0.42,0.23c0.05,0.03,5.52,3.02,8.56,3.02h0.75v0.75c0,0.88,2.6,3.04,5.03,4.51l1.21,0.74l-1.29,0.59
			C38.02,55.75,28.82,59.9,20.71,59.9z M17.49,58.12c0.98,0.18,2.05,0.28,3.21,0.28c6.05,0,12.96-2.51,15.78-3.65
			c-1.57-1.05-3.8-2.76-4.39-4.29c-2.91-0.26-6.93-2.26-8.25-2.95C21.14,49.59,15.76,54.73,17.49,58.12z"/>
	</g>
</g>
</svg>
