<svg xmlns="http://www.w3.org/2000/svg" width="18.431" height="14.65"><g><g fill="#09c0d7"><path d="M0 6.117A1.657 1.657 0 001.074 7.69V4.696c0-.043.021-.108.021-.151A1.681 1.681 0 000 6.117z"/><path d="M5.864 9.824H3.05l1.053 3.836a1.333 1.333 0 001.288.99 1.353 1.353 0 001.1-.539 1.252 1.252 0 00.215-1.162z"/><path d="M1.096 4.524h.021v-.021c0 .021 0 .021-.021.021z"/><path d="M16.498 4.223h-.174V8.1h.171a1.939 1.939 0 000-3.877z"/><path d="M1.716 4.697v3.06a1.463 1.463 0 001.461 1.422h3.909V3.363H3.177a1.4 1.4 0 00-1.461 1.334z"/><path d="M7.732 9.264l7.948 3.188V0L7.732 3.189z"/></g></g></svg>