<svg xmlns="http://www.w3.org/2000/svg" width="25" height="25"><g><path data-name="Path 367" d="M14.394 16.93a.3.3 0 01.363.049l3.61 3.61a1.652 1.652 0 002.365.253l.11-.11a1.652 1.652 0 00-.253-2.365l-3.618-3.618a.3.3 0 01-.041-.355 6.953 6.953 0 00-1.067-8.558A7.091 7.091 0 105.835 15.864a6.952 6.952 0 008.559 1.066zm-7.248-2.376a5.239 5.239 0 117.409 0 5.246 5.246 0 01-7.409.003z" fill="#656464"/><g><path data-name="Path 368" d="M13.428 9.982a3.147 3.147 0 00-4.12-1.67.732.732 0 11-.57-1.348 4.613 4.613 0 016.038 2.448.732.732 0 11-1.348.57z" fill="#656464"/></g></g></svg>