<svg xmlns="http://www.w3.org/2000/svg" width="25" height="25"><g fill="#4280e5"><path d="M21.188 3.227H4.24a1.421 1.421 0 00-1.419 1.419v10.271a1.421 1.421 0 001.419 1.419h6.006v2.2H7.628a.729.729 0 00-.729.729v1.052a.729.729 0 00.729.729H17.8a.728.728 0 00.728-.729v-1.052a.729.729 0 00-.728-.729h-2.618v-2.2h6.006a1.421 1.421 0 001.419-1.419V4.646a1.421 1.421 0 00-1.419-1.419zM4.202 14.917L4.24 4.608l16.987.038v10.309z"/><path data-name="Path 361" d="M10.744 11.54a.354.354 0 00.353-.089l.953-.953 2.232 2.231a.355.355 0 00.5 0l.881-.88a.352.352 0 000-.5l-2.232-2.232.954-.955a.356.356 0 00.09-.35.363.363 0 00-.267-.243l-4.122-.832a.352.352 0 00-.415.415l.832 4.12a.354.354 0 00.241.268z"/></g></svg>