<svg xmlns="http://www.w3.org/2000/svg" width="25" height="25"><g fill="#656464"><path d="M12.934 22.707a.618.618 0 01-.607-.725l.436-2.473a.621.621 0 01.171-.329l6.111-6.11a1.255 1.255 0 011.891-.145l1.018 1.018a1.441 1.441 0 010 2.037l-6.11 6.11a.608.608 0 01-.33.171l-2.473.436a.584.584 0 01-.107.01zm2.473-1.054z"/><path d="M14.351 2.956H4.887a2.262 2.262 0 00-2.264 2.263v12.756a2.262 2.262 0 002.264 2.263h6.073l.182-1.012a2.269 2.269 0 01.407-.951h-6.3a.853.853 0 01-.85-.851V5.77a.853.853 0 01.85-.851h8.731a.853.853 0 01.85.851v9.184l1.78-1.777V5.219a2.262 2.262 0 00-2.259-2.263z"/><path d="M6.818 7.341h3.292a.823.823 0 010 1.646H6.818a.823.823 0 110-1.646z"/><path d="M10.936 15.574H6.821a.823.823 0 110-1.646h4.115a.823.823 0 110 1.646z"/><path d="M12.808 12.282h-5.99a.823.823 0 110-1.646h5.99a.823.823 0 010 1.646z"/></g></svg>